solid ascii
  facet normal -0.000000e+000 -1.000000e+001 -0.000000e+000
    outer loop
      vertex   -7.750000e+001 1.055106e+002 3.250000e+001
      vertex   -8.165059e+001 1.055106e+002 3.250000e+001
      vertex   -7.750000e+001 1.055106e+002 2.633529e+001
    endloop
  endfacet
  facet normal 0.000000e+000 -8.266202e+000 0.000000e+000
    outer loop
      vertex   -7.750000e+001 1.055106e+002 2.633529e+001
      vertex   -8.165059e+001 1.055106e+002 3.250000e+001
      vertex   -8.303412e+001 1.055106e+002 1.250000e+001
    endloop
  endfacet
  facet normal 0.000000e+000 -1.000000e+001 0.000000e+000
    outer loop
      vertex   -7.750000e+001 1.055106e+002 1.250000e+001
      vertex   -7.750000e+001 1.055106e+002 2.633529e+001
      vertex   -8.303412e+001 1.055106e+002 1.250000e+001
    endloop
  endfacet
  facet normal 0.000000e+000 -7.071068e+000 0.000000e+000
    outer loop
      vertex   -8.350000e+001 1.055106e+002 3.250000e+001
      vertex   -8.390062e+001 1.055106e+002 3.209938e+001
      vertex   -8.165059e+001 1.055106e+002 3.250000e+001
    endloop
  endfacet
  facet normal 0.000000e+000 -9.700717e+000 0.000000e+000
    outer loop
      vertex   -8.165059e+001 1.055106e+002 3.250000e+001
      vertex   -8.390062e+001 1.055106e+002 3.209938e+001
      vertex   -8.303412e+001 1.055106e+002 1.250000e+001
    endloop
  endfacet
  facet normal 0.000000e+000 -5.275038e+000 0.000000e+000
    outer loop
      vertex   -8.303412e+001 1.055106e+002 1.250000e+001
      vertex   -8.390062e+001 1.055106e+002 3.209938e+001
      vertex   -8.550000e+001 1.055106e+002 1.610560e+001
    endloop
  endfacet
  facet normal 0.000000e+000 -1.000000e+001 0.000000e+000
    outer loop
      vertex   -8.550000e+001 1.055106e+002 1.250000e+001
      vertex   -8.303412e+001 1.055106e+002 1.250000e+001
      vertex   -8.550000e+001 1.055106e+002 1.610560e+001
    endloop
  endfacet
  facet normal 0.000000e+000 -6.332372e+000 0.000000e+000
    outer loop
      vertex   -8.390062e+001 1.055106e+002 3.209938e+001
      vertex   -8.550000e+001 1.055106e+002 3.050000e+001
      vertex   -8.550000e+001 1.055106e+002 1.610560e+001
    endloop
  endfacet
  facet normal -8.575406e+000 0.000000e+000 0.000000e+000
    outer loop
      vertex   -8.550000e+001 1.055106e+002 1.610560e+001
      vertex   -8.550000e+001 1.055106e+002 3.050000e+001
      vertex   -8.550000e+001 1.295063e+002 3.050000e+001
    endloop
  endfacet
  facet normal -7.071073e+000 0.000000e+000 7.071062e+000
    outer loop
      vertex   -8.550000e+001 1.055106e+002 3.050000e+001
      vertex   -8.390062e+001 1.055106e+002 3.209938e+001
      vertex   -8.550000e+001 1.295063e+002 3.050000e+001
    endloop
  endfacet
  facet normal -7.071068e+000 0.000000e+000 7.071068e+000
    outer loop
      vertex   -8.350000e+001 1.055106e+002 3.250000e+001
      vertex   -8.350000e+001 1.337953e+002 3.250000e+001
      vertex   -8.390062e+001 1.055106e+002 3.209938e+001
    endloop
  endfacet
  facet normal -8.044382e-001 1.400809e-008 8.044373e-001
    outer loop
      vertex   -8.390062e+001 1.055106e+002 3.209938e+001
      vertex   -8.350000e+001 1.337953e+002 3.250000e+001
      vertex   -8.550000e+001 1.295063e+002 3.050000e+001
    endloop
  endfacet
  facet normal 0.000000e+000 0.000000e+000 1.000000e+001
    outer loop
      vertex   -8.350000e+001 1.055106e+002 3.250000e+001
      vertex   -8.165059e+001 1.055106e+002 3.250000e+001
      vertex   -8.350000e+001 1.337953e+002 3.250000e+001
    endloop
  endfacet
  facet normal 0.000000e+000 0.000000e+000 3.145434e+000
    outer loop
      vertex   -8.350000e+001 1.337953e+002 3.250000e+001
      vertex   -8.165059e+001 1.055106e+002 3.250000e+001
      vertex   -7.750000e+001 1.190000e+002 3.250000e+001
    endloop
  endfacet
  facet normal 0.000000e+000 0.000000e+000 9.557790e+000
    outer loop
      vertex   -8.165059e+001 1.055106e+002 3.250000e+001
      vertex   -7.750000e+001 1.055106e+002 3.250000e+001
      vertex   -7.750000e+001 1.190000e+002 3.250000e+001
    endloop
  endfacet
  facet normal 0.000000e+000 9.893609e+000 0.000000e+000
    outer loop
      vertex   -7.944093e+001 1.425000e+002 1.250000e+001
      vertex   -7.650000e+001 1.425000e+002 3.250000e+001
      vertex   -7.650000e+001 1.425000e+002 1.250000e+001
    endloop
  endfacet
  facet normal 0.000000e+000 1.000000e+001 0.000000e+000
    outer loop
      vertex   -7.944093e+001 1.425000e+002 3.250000e+001
      vertex   -7.650000e+001 1.425000e+002 3.250000e+001
      vertex   -7.944093e+001 1.425000e+002 1.250000e+001
    endloop
  endfacet
  facet normal 7.615394e+000 0.000000e+000 0.000000e+000
    outer loop
      vertex   -7.650000e+001 1.425000e+002 3.250000e+001
      vertex   -7.650000e+001 1.190000e+002 1.250000e+001
      vertex   -7.650000e+001 1.425000e+002 1.250000e+001
    endloop
  endfacet
  facet normal 1.000000e+001 0.000000e+000 0.000000e+000
    outer loop
      vertex   -7.650000e+001 1.190000e+002 3.250000e+001
      vertex   -7.650000e+001 1.190000e+002 1.250000e+001
      vertex   -7.650000e+001 1.425000e+002 3.250000e+001
    endloop
  endfacet
  facet normal 0.000000e+000 0.000000e+000 -9.990958e+000
    outer loop
      vertex   -7.750000e+001 1.190000e+002 1.250000e+001
      vertex   -7.650000e+001 1.425000e+002 1.250000e+001
      vertex   -7.650000e+001 1.190000e+002 1.250000e+001
    endloop
  endfacet
  facet normal 0.000000e+000 0.000000e+000 -9.966066e+000
    outer loop
      vertex   -7.944093e+001 1.425000e+002 1.250000e+001
      vertex   -7.650000e+001 1.425000e+002 1.250000e+001
      vertex   -7.750000e+001 1.190000e+002 1.250000e+001
    endloop
  endfacet
  facet normal 0.000000e+000 0.000000e+000 -4.957852e+000
    outer loop
      vertex   -7.944093e+001 1.425000e+002 1.250000e+001
      vertex   -7.750000e+001 1.190000e+002 1.250000e+001
      vertex   -8.550000e+001 1.295063e+002 1.250000e+001
    endloop
  endfacet
  facet normal 0.000000e+000 0.000000e+000 -1.000000e+001
    outer loop
      vertex   -8.550000e+001 1.055106e+002 1.250000e+001
      vertex   -8.550000e+001 1.295063e+002 1.250000e+001
      vertex   -8.303412e+001 1.055106e+002 1.250000e+001
    endloop
  endfacet
  facet normal 0.000000e+000 0.000000e+000 -4.721436e+000
    outer loop
      vertex   -8.303412e+001 1.055106e+002 1.250000e+001
      vertex   -8.550000e+001 1.295063e+002 1.250000e+001
      vertex   -7.750000e+001 1.190000e+002 1.250000e+001
    endloop
  endfacet
  facet normal 0.000000e+000 0.000000e+000 -1.000000e+001
    outer loop
      vertex   -7.750000e+001 1.055106e+002 1.250000e+001
      vertex   -8.303412e+001 1.055106e+002 1.250000e+001
      vertex   -7.750000e+001 1.190000e+002 1.250000e+001
    endloop
  endfacet
  facet normal 0.000000e+000 -9.987524e+000 0.000000e+000
    outer loop
      vertex   -7.650000e+001 1.190000e+002 1.250000e+001
      vertex   -7.750000e+001 1.190000e+002 3.250000e+001
      vertex   -7.750000e+001 1.190000e+002 1.250000e+001
    endloop
  endfacet
  facet normal -0.000000e+000 -1.000000e+001 -0.000000e+000
    outer loop
      vertex   -7.650000e+001 1.190000e+002 3.250000e+001
      vertex   -7.750000e+001 1.190000e+002 3.250000e+001
      vertex   -7.650000e+001 1.190000e+002 1.250000e+001
    endloop
  endfacet
  facet normal -3.923390e+000 1.829510e+000 0.000000e+000
    outer loop
      vertex   -7.944093e+001 1.425000e+002 1.250000e+001
      vertex   -8.350000e+001 1.337953e+002 3.250000e+001
      vertex   -7.944093e+001 1.425000e+002 3.250000e+001
    endloop
  endfacet
  facet normal -8.819540e+000 4.112625e+000 -7.380497e-007
    outer loop
      vertex   -8.550000e+001 1.295063e+002 1.250000e+001
      vertex   -8.350000e+001 1.337953e+002 3.250000e+001
      vertex   -7.944093e+001 1.425000e+002 1.250000e+001
    endloop
  endfacet
  facet normal -8.348168e+000 3.892817e+000 0.000000e+000
    outer loop
      vertex   -8.550000e+001 1.295063e+002 3.050000e+001
      vertex   -8.350000e+001 1.337953e+002 3.250000e+001
      vertex   -8.550000e+001 1.295063e+002 1.250000e+001
    endloop
  endfacet
  facet normal -1.000000e+001 0.000000e+000 0.000000e+000
    outer loop
      vertex   -8.550000e+001 1.055106e+002 1.250000e+001
      vertex   -8.550000e+001 1.055106e+002 1.610560e+001
      vertex   -8.550000e+001 1.295063e+002 1.250000e+001
    endloop
  endfacet
  facet normal -9.888986e+000 0.000000e+000 0.000000e+000
    outer loop
      vertex   -8.550000e+001 1.295063e+002 1.250000e+001
      vertex   -8.550000e+001 1.055106e+002 1.610560e+001
      vertex   -8.550000e+001 1.295063e+002 3.050000e+001
    endloop
  endfacet
  facet normal 1.000000e+001 0.000000e+000 0.000000e+000
    outer loop
      vertex   -7.750000e+001 1.055106e+002 3.250000e+001
      vertex   -7.750000e+001 1.055106e+002 2.633529e+001
      vertex   -7.750000e+001 1.190000e+002 3.250000e+001
    endloop
  endfacet
  facet normal 9.095223e+000 0.000000e+000 0.000000e+000
    outer loop
      vertex   -7.750000e+001 1.190000e+002 3.250000e+001
      vertex   -7.750000e+001 1.055106e+002 2.633529e+001
      vertex   -7.750000e+001 1.190000e+002 1.250000e+001
    endloop
  endfacet
  facet normal 6.981001e+000 0.000000e+000 0.000000e+000
    outer loop
      vertex   -7.750000e+001 1.055106e+002 2.633529e+001
      vertex   -7.750000e+001 1.055106e+002 1.250000e+001
      vertex   -7.750000e+001 1.190000e+002 1.250000e+001
    endloop
  endfacet
  facet normal 0.000000e+000 0.000000e+000 4.251468e-001
    outer loop
      vertex   -7.650000e+001 1.425000e+002 3.250000e+001
      vertex   -7.750000e+001 1.190000e+002 3.250000e+001
      vertex   -7.650000e+001 1.190000e+002 3.250000e+001
    endloop
  endfacet
  facet normal 0.000000e+000 0.000000e+000 9.966066e+000
    outer loop
      vertex   -7.944093e+001 1.425000e+002 3.250000e+001
      vertex   -7.750000e+001 1.190000e+002 3.250000e+001
      vertex   -7.650000e+001 1.425000e+002 3.250000e+001
    endloop
  endfacet
  facet normal 0.000000e+000 0.000000e+000 7.322373e+000
    outer loop
      vertex   -8.350000e+001 1.337953e+002 3.250000e+001
      vertex   -7.750000e+001 1.190000e+002 3.250000e+001
      vertex   -7.944093e+001 1.425000e+002 3.250000e+001
    endloop
  endfacet
endsolid
solid ascii
  facet normal 0.000000e+000 -1.000000e+001 0.000000e+000
    outer loop
      vertex   -7.600000e+001 1.055106e+002 1.250000e+001
      vertex   -7.184941e+001 1.055106e+002 1.250000e+001
      vertex   -7.600000e+001 1.055106e+002 1.866471e+001
    endloop
  endfacet
  facet normal 0.000000e+000 -8.266197e+000 0.000000e+000
    outer loop
      vertex   -7.600000e+001 1.055106e+002 1.866471e+001
      vertex   -7.184941e+001 1.055106e+002 1.250000e+001
      vertex   -7.046589e+001 1.055106e+002 3.250000e+001
    endloop
  endfacet
  facet normal 0.000000e+000 -1.000000e+001 0.000000e+000
    outer loop
      vertex   -7.600000e+001 1.055106e+002 3.250000e+001
      vertex   -7.600000e+001 1.055106e+002 1.866471e+001
      vertex   -7.046589e+001 1.055106e+002 3.250000e+001
    endloop
  endfacet
  facet normal 0.000000e+000 -7.071078e+000 0.000000e+000
    outer loop
      vertex   -7.000000e+001 1.055106e+002 1.250000e+001
      vertex   -6.959938e+001 1.055106e+002 1.290062e+001
      vertex   -7.184941e+001 1.055106e+002 1.250000e+001
    endloop
  endfacet
  facet normal 0.000000e+000 -9.700716e+000 0.000000e+000
    outer loop
      vertex   -7.184941e+001 1.055106e+002 1.250000e+001
      vertex   -6.959938e+001 1.055106e+002 1.290062e+001
      vertex   -7.046589e+001 1.055106e+002 3.250000e+001
    endloop
  endfacet
  facet normal 0.000000e+000 -5.275039e+000 0.000000e+000
    outer loop
      vertex   -7.046589e+001 1.055106e+002 3.250000e+001
      vertex   -6.959938e+001 1.055106e+002 1.290062e+001
      vertex   -6.800000e+001 1.055106e+002 2.889440e+001
    endloop
  endfacet
  facet normal -0.000000e+000 -1.000000e+001 -0.000000e+000
    outer loop
      vertex   -6.800000e+001 1.055106e+002 3.250000e+001
      vertex   -7.046589e+001 1.055106e+002 3.250000e+001
      vertex   -6.800000e+001 1.055106e+002 2.889440e+001
    endloop
  endfacet
  facet normal 0.000000e+000 -6.332375e+000 0.000000e+000
    outer loop
      vertex   -6.959938e+001 1.055106e+002 1.290062e+001
      vertex   -6.800000e+001 1.055106e+002 1.450000e+001
      vertex   -6.800000e+001 1.055106e+002 2.889440e+001
    endloop
  endfacet
  facet normal 8.575406e+000 0.000000e+000 0.000000e+000
    outer loop
      vertex   -6.800000e+001 1.055106e+002 2.889440e+001
      vertex   -6.800000e+001 1.055106e+002 1.450000e+001
      vertex   -6.800000e+001 1.295063e+002 1.450000e+001
    endloop
  endfacet
  facet normal 7.071071e+000 0.000000e+000 -7.071065e+000
    outer loop
      vertex   -6.800000e+001 1.055106e+002 1.450000e+001
      vertex   -6.959938e+001 1.055106e+002 1.290062e+001
      vertex   -6.800000e+001 1.295063e+002 1.450000e+001
    endloop
  endfacet
  facet normal 7.071078e+000 0.000000e+000 -7.071057e+000
    outer loop
      vertex   -7.000000e+001 1.055106e+002 1.250000e+001
      vertex   -7.000000e+001 1.337953e+002 1.250000e+001
      vertex   -6.959938e+001 1.055106e+002 1.290062e+001
    endloop
  endfacet
  facet normal 8.044381e-001 -2.095795e-008 -8.044373e-001
    outer loop
      vertex   -6.959938e+001 1.055106e+002 1.290062e+001
      vertex   -7.000000e+001 1.337953e+002 1.250000e+001
      vertex   -6.800000e+001 1.295063e+002 1.450000e+001
    endloop
  endfacet
  facet normal 0.000000e+000 0.000000e+000 -1.000000e+001
    outer loop
      vertex   -7.000000e+001 1.055106e+002 1.250000e+001
      vertex   -7.184941e+001 1.055106e+002 1.250000e+001
      vertex   -7.000000e+001 1.337953e+002 1.250000e+001
    endloop
  endfacet
  facet normal 0.000000e+000 0.000000e+000 -3.145431e+000
    outer loop
      vertex   -7.000000e+001 1.337953e+002 1.250000e+001
      vertex   -7.184941e+001 1.055106e+002 1.250000e+001
      vertex   -7.600000e+001 1.190000e+002 1.250000e+001
    endloop
  endfacet
  facet normal 0.000000e+000 0.000000e+000 -9.557790e+000
    outer loop
      vertex   -7.184941e+001 1.055106e+002 1.250000e+001
      vertex   -7.600000e+001 1.055106e+002 1.250000e+001
      vertex   -7.600000e+001 1.190000e+002 1.250000e+001
    endloop
  endfacet
  facet normal 0.000000e+000 9.893609e+000 0.000000e+000
    outer loop
      vertex   -7.405907e+001 1.425000e+002 3.250000e+001
      vertex   -7.700000e+001 1.425000e+002 1.250000e+001
      vertex   -7.700000e+001 1.425000e+002 3.250000e+001
    endloop
  endfacet
  facet normal 0.000000e+000 1.000000e+001 0.000000e+000
    outer loop
      vertex   -7.405907e+001 1.425000e+002 1.250000e+001
      vertex   -7.700000e+001 1.425000e+002 1.250000e+001
      vertex   -7.405907e+001 1.425000e+002 3.250000e+001
    endloop
  endfacet
  facet normal -7.615394e+000 0.000000e+000 0.000000e+000
    outer loop
      vertex   -7.700000e+001 1.425000e+002 1.250000e+001
      vertex   -7.700000e+001 1.190000e+002 3.250000e+001
      vertex   -7.700000e+001 1.425000e+002 3.250000e+001
    endloop
  endfacet
  facet normal -1.000000e+001 0.000000e+000 0.000000e+000
    outer loop
      vertex   -7.700000e+001 1.190000e+002 1.250000e+001
      vertex   -7.700000e+001 1.190000e+002 3.250000e+001
      vertex   -7.700000e+001 1.425000e+002 1.250000e+001
    endloop
  endfacet
  facet normal 0.000000e+000 0.000000e+000 9.990958e+000
    outer loop
      vertex   -7.600000e+001 1.190000e+002 3.250000e+001
      vertex   -7.700000e+001 1.425000e+002 3.250000e+001
      vertex   -7.700000e+001 1.190000e+002 3.250000e+001
    endloop
  endfacet
  facet normal 0.000000e+000 0.000000e+000 9.966066e+000
    outer loop
      vertex   -7.405907e+001 1.425000e+002 3.250000e+001
      vertex   -7.700000e+001 1.425000e+002 3.250000e+001
      vertex   -7.600000e+001 1.190000e+002 3.250000e+001
    endloop
  endfacet
  facet normal 0.000000e+000 0.000000e+000 4.957849e+000
    outer loop
      vertex   -7.405907e+001 1.425000e+002 3.250000e+001
      vertex   -7.600000e+001 1.190000e+002 3.250000e+001
      vertex   -6.800000e+001 1.295063e+002 3.250000e+001
    endloop
  endfacet
  facet normal 0.000000e+000 0.000000e+000 1.000000e+001
    outer loop
      vertex   -6.800000e+001 1.055106e+002 3.250000e+001
      vertex   -6.800000e+001 1.295063e+002 3.250000e+001
      vertex   -7.046589e+001 1.055106e+002 3.250000e+001
    endloop
  endfacet
  facet normal 0.000000e+000 0.000000e+000 4.721433e+000
    outer loop
      vertex   -7.046589e+001 1.055106e+002 3.250000e+001
      vertex   -6.800000e+001 1.295063e+002 3.250000e+001
      vertex   -7.600000e+001 1.190000e+002 3.250000e+001
    endloop
  endfacet
  facet normal 0.000000e+000 0.000000e+000 1.000000e+001
    outer loop
      vertex   -7.600000e+001 1.055106e+002 3.250000e+001
      vertex   -7.046589e+001 1.055106e+002 3.250000e+001
      vertex   -7.600000e+001 1.190000e+002 3.250000e+001
    endloop
  endfacet
  facet normal 0.000000e+000 -9.987524e+000 0.000000e+000
    outer loop
      vertex   -7.700000e+001 1.190000e+002 3.250000e+001
      vertex   -7.600000e+001 1.190000e+002 1.250000e+001
      vertex   -7.600000e+001 1.190000e+002 3.250000e+001
    endloop
  endfacet
  facet normal 0.000000e+000 -1.000000e+001 0.000000e+000
    outer loop
      vertex   -7.700000e+001 1.190000e+002 1.250000e+001
      vertex   -7.600000e+001 1.190000e+002 1.250000e+001
      vertex   -7.700000e+001 1.190000e+002 3.250000e+001
    endloop
  endfacet
  facet normal 3.923390e+000 1.829508e+000 0.000000e+000
    outer loop
      vertex   -7.405907e+001 1.425000e+002 3.250000e+001
      vertex   -7.000000e+001 1.337953e+002 1.250000e+001
      vertex   -7.405907e+001 1.425000e+002 1.250000e+001
    endloop
  endfacet
  facet normal 8.819541e+000 4.112622e+000 4.396892e-008
    outer loop
      vertex   -6.800000e+001 1.295063e+002 3.250000e+001
      vertex   -7.000000e+001 1.337953e+002 1.250000e+001
      vertex   -7.405907e+001 1.425000e+002 3.250000e+001
    endloop
  endfacet
  facet normal 8.348168e+000 3.892817e+000 0.000000e+000
    outer loop
      vertex   -6.800000e+001 1.295063e+002 1.450000e+001
      vertex   -7.000000e+001 1.337953e+002 1.250000e+001
      vertex   -6.800000e+001 1.295063e+002 3.250000e+001
    endloop
  endfacet
  facet normal 1.000000e+001 0.000000e+000 0.000000e+000
    outer loop
      vertex   -6.800000e+001 1.055106e+002 3.250000e+001
      vertex   -6.800000e+001 1.055106e+002 2.889440e+001
      vertex   -6.800000e+001 1.295063e+002 3.250000e+001
    endloop
  endfacet
  facet normal 9.888986e+000 0.000000e+000 0.000000e+000
    outer loop
      vertex   -6.800000e+001 1.295063e+002 3.250000e+001
      vertex   -6.800000e+001 1.055106e+002 2.889440e+001
      vertex   -6.800000e+001 1.295063e+002 1.450000e+001
    endloop
  endfacet
  facet normal -1.000000e+001 0.000000e+000 0.000000e+000
    outer loop
      vertex   -7.600000e+001 1.055106e+002 1.250000e+001
      vertex   -7.600000e+001 1.055106e+002 1.866471e+001
      vertex   -7.600000e+001 1.190000e+002 1.250000e+001
    endloop
  endfacet
  facet normal -9.095223e+000 0.000000e+000 0.000000e+000
    outer loop
      vertex   -7.600000e+001 1.190000e+002 1.250000e+001
      vertex   -7.600000e+001 1.055106e+002 1.866471e+001
      vertex   -7.600000e+001 1.190000e+002 3.250000e+001
    endloop
  endfacet
  facet normal -6.981001e+000 0.000000e+000 0.000000e+000
    outer loop
      vertex   -7.600000e+001 1.055106e+002 1.866471e+001
      vertex   -7.600000e+001 1.055106e+002 3.250000e+001
      vertex   -7.600000e+001 1.190000e+002 3.250000e+001
    endloop
  endfacet
  facet normal 0.000000e+000 0.000000e+000 -4.251489e-001
    outer loop
      vertex   -7.700000e+001 1.425000e+002 1.250000e+001
      vertex   -7.600000e+001 1.190000e+002 1.250000e+001
      vertex   -7.700000e+001 1.190000e+002 1.250000e+001
    endloop
  endfacet
  facet normal 0.000000e+000 0.000000e+000 -9.966066e+000
    outer loop
      vertex   -7.405907e+001 1.425000e+002 1.250000e+001
      vertex   -7.600000e+001 1.190000e+002 1.250000e+001
      vertex   -7.700000e+001 1.425000e+002 1.250000e+001
    endloop
  endfacet
  facet normal 0.000000e+000 0.000000e+000 -7.322368e+000
    outer loop
      vertex   -7.000000e+001 1.337953e+002 1.250000e+001
      vertex   -7.600000e+001 1.190000e+002 1.250000e+001
      vertex   -7.405907e+001 1.425000e+002 1.250000e+001
    endloop
  endfacet
endsolid
