solid ascii
  facet normal 0.000000e+000 7.071068e-001 -7.071068e-001
    outer loop
      vertex   -1.597417e+002 1.655942e+002 -1.225000e+001
      vertex   -1.845817e+002 1.655942e+002 -1.225000e+001
      vertex   -1.597417e+002 1.675942e+002 -1.025000e+001
    endloop
  endfacet
  facet normal 0.000000e+000 7.071068e-001 -7.071068e-001
    outer loop
      vertex   -1.597417e+002 1.675942e+002 -1.025000e+001
      vertex   -1.845817e+002 1.655942e+002 -1.225000e+001
      vertex   -1.845817e+002 1.675942e+002 -1.025000e+001
    endloop
  endfacet
  facet normal -0.000000e+000 0.000000e+000 -1.000000e+000
    outer loop
      vertex   -1.597417e+002 1.655942e+002 -1.225000e+001
      vertex   -1.597417e+002 1.540942e+002 -1.225000e+001
      vertex   -1.845817e+002 1.655942e+002 -1.225000e+001
    endloop
  endfacet
  facet normal -0.000000e+000 -0.000000e+000 -1.000000e+000
    outer loop
      vertex   -1.845817e+002 1.655942e+002 -1.225000e+001
      vertex   -1.597417e+002 1.540942e+002 -1.225000e+001
      vertex   -1.845817e+002 1.540942e+002 -1.225000e+001
    endloop
  endfacet
  facet normal 0.000000e+000 0.000000e+000 -1.000000e+000
    outer loop
      vertex   -1.845817e+002 1.540942e+002 -1.225000e+001
      vertex   -1.597417e+002 1.540942e+002 -1.225000e+001
      vertex   -1.597417e+002 1.507542e+002 -1.225000e+001
    endloop
  endfacet
  facet normal 0.000000e+000 0.000000e+000 -1.000000e+000
    outer loop
      vertex   -1.845817e+002 1.507542e+002 -1.225000e+001
      vertex   -1.597417e+002 1.507542e+002 -1.225000e+001
      vertex   -1.597417e+002 1.467542e+002 -1.225000e+001
    endloop
  endfacet
  facet normal 0.000000e+000 0.000000e+000 -1.000000e+000
    outer loop
      vertex   -1.845817e+002 1.467542e+002 -1.225000e+001
      vertex   -1.845817e+002 1.507542e+002 -1.225000e+001
      vertex   -1.597417e+002 1.467542e+002 -1.225000e+001
    endloop
  endfacet
  facet normal -0.000000e+000 -0.000000e+000 -1.000000e+000
    outer loop
      vertex   -1.572417e+002 1.540942e+002 -1.225000e+001
      vertex   -1.562417e+002 1.530942e+002 -1.225000e+001
      vertex   -1.597417e+002 1.540942e+002 -1.225000e+001
    endloop
  endfacet
  facet normal 0.000000e+000 0.000000e+000 -1.000000e+000
    outer loop
      vertex   -1.597417e+002 1.540942e+002 -1.225000e+001
      vertex   -1.562417e+002 1.530942e+002 -1.225000e+001
      vertex   -1.562417e+002 1.517542e+002 -1.225000e+001
    endloop
  endfacet
  facet normal 0.000000e+000 -0.000000e+000 -1.000000e+000
    outer loop
      vertex   -1.597417e+002 1.507542e+002 -1.225000e+001
      vertex   -1.562417e+002 1.517542e+002 -1.225000e+001
      vertex   -1.572417e+002 1.507542e+002 -1.225000e+001
    endloop
  endfacet
  facet normal 0.000000e+000 0.000000e+000 -1.000000e+000
    outer loop
      vertex   -1.597417e+002 1.507542e+002 -1.225000e+001
      vertex   -1.597417e+002 1.540942e+002 -1.225000e+001
      vertex   -1.562417e+002 1.517542e+002 -1.225000e+001
    endloop
  endfacet
  facet normal -0.000000e+000 -0.000000e+000 -1.000000e+000
    outer loop
      vertex   -1.845817e+002 1.540942e+002 -1.225000e+001
      vertex   -1.597417e+002 1.507542e+002 -1.225000e+001
      vertex   -1.845817e+002 1.507542e+002 -1.225000e+001
    endloop
  endfacet
  facet normal -0.000000e+000 -0.000000e+000 -1.000000e+000
    outer loop
      vertex   -1.880817e+002 1.530942e+002 -1.225000e+001
      vertex   -1.845817e+002 1.507542e+002 -1.225000e+001
      vertex   -1.880817e+002 1.517542e+002 -1.225000e+001
    endloop
  endfacet
  facet normal 0.000000e+000 0.000000e+000 -1.000000e+000
    outer loop
      vertex   -1.880817e+002 1.530942e+002 -1.225000e+001
      vertex   -1.845817e+002 1.540942e+002 -1.225000e+001
      vertex   -1.845817e+002 1.507542e+002 -1.225000e+001
    endloop
  endfacet
  facet normal 0.000000e+000 0.000000e+000 -1.000000e+000
    outer loop
      vertex   -1.880817e+002 1.530942e+002 -1.225000e+001
      vertex   -1.870817e+002 1.540942e+002 -1.225000e+001
      vertex   -1.845817e+002 1.540942e+002 -1.225000e+001
    endloop
  endfacet
  facet normal 0.000000e+000 0.000000e+000 -1.000000e+000
    outer loop
      vertex   -1.845817e+002 1.507542e+002 -1.225000e+001
      vertex   -1.870817e+002 1.507542e+002 -1.225000e+001
      vertex   -1.880817e+002 1.517542e+002 -1.225000e+001
    endloop
  endfacet
  facet normal 1.000000e+000 -2.471453e-015 1.668231e-014
    outer loop
      vertex   -1.597417e+002 1.655942e+002 -1.225000e+001
      vertex   -1.597417e+002 1.675942e+002 -1.025000e+001
      vertex   -1.597417e+002 1.540942e+002 -1.225000e+001
    endloop
  endfacet
  facet normal 1.000000e+000 0.000000e+000 -0.000000e+000
    outer loop
      vertex   -1.597417e+002 1.540942e+002 -1.225000e+001
      vertex   -1.597417e+002 1.675942e+002 -1.025000e+001
      vertex   -1.597417e+002 1.540942e+002 -5.920000e+000
    endloop
  endfacet
  facet normal 1.000000e+000 -0.000000e+000 0.000000e+000
    outer loop
      vertex   -1.597417e+002 1.540942e+002 -5.920000e+000
      vertex   -1.597417e+002 1.675942e+002 -1.025000e+001
      vertex   -1.597417e+002 1.675942e+002 -5.920000e+000
    endloop
  endfacet
  facet normal 0.000000e+000 -0.000000e+000 1.000000e+000
    outer loop
      vertex   -1.597417e+002 1.467542e+002 -5.920000e+000
      vertex   -1.597417e+002 1.507542e+002 -5.920000e+000
      vertex   -1.845817e+002 1.467542e+002 -5.920000e+000
    endloop
  endfacet
  facet normal 0.000000e+000 -0.000000e+000 1.000000e+000
    outer loop
      vertex   -1.845817e+002 1.467542e+002 -5.920000e+000
      vertex   -1.597417e+002 1.507542e+002 -5.920000e+000
      vertex   -1.845817e+002 1.507542e+002 -5.920000e+000
    endloop
  endfacet
  facet normal -1.521326e-030 1.329608e-015 1.000000e+000
    outer loop
      vertex   -1.845817e+002 1.507542e+002 -5.920000e+000
      vertex   -1.597417e+002 1.507542e+002 -5.920000e+000
      vertex   -1.597417e+002 1.540942e+002 -5.920000e+000
    endloop
  endfacet
  facet normal 0.000000e+000 -3.289550e-016 1.000000e+000
    outer loop
      vertex   -1.845817e+002 1.540942e+002 -5.920000e+000
      vertex   -1.597417e+002 1.540942e+002 -5.920000e+000
      vertex   -1.597417e+002 1.675942e+002 -5.920000e+000
    endloop
  endfacet
  facet normal -1.072679e-016 -1.315820e-016 1.000000e+000
    outer loop
      vertex   -1.845817e+002 1.675942e+002 -5.920000e+000
      vertex   -1.845817e+002 1.540942e+002 -5.920000e+000
      vertex   -1.597417e+002 1.675942e+002 -5.920000e+000
    endloop
  endfacet
  facet normal 1.065814e-015 7.105427e-016 1.000000e+000
    outer loop
      vertex   -1.572417e+002 1.507542e+002 -5.920000e+000
      vertex   -1.562417e+002 1.517542e+002 -5.920000e+000
      vertex   -1.597417e+002 1.507542e+002 -5.920000e+000
    endloop
  endfacet
  facet normal 1.268826e-015 -0.000000e+000 1.000000e+000
    outer loop
      vertex   -1.597417e+002 1.507542e+002 -5.920000e+000
      vertex   -1.562417e+002 1.517542e+002 -5.920000e+000
      vertex   -1.562417e+002 1.530942e+002 -5.920000e+000
    endloop
  endfacet
  facet normal -1.776357e-015 -6.217249e-015 1.000000e+000
    outer loop
      vertex   -1.597417e+002 1.540942e+002 -5.920000e+000
      vertex   -1.562417e+002 1.530942e+002 -5.920000e+000
      vertex   -1.572417e+002 1.540942e+002 -5.920000e+000
    endloop
  endfacet
  facet normal 3.798881e-016 1.329608e-015 1.000000e+000
    outer loop
      vertex   -1.597417e+002 1.540942e+002 -5.920000e+000
      vertex   -1.597417e+002 1.507542e+002 -5.920000e+000
      vertex   -1.562417e+002 1.530942e+002 -5.920000e+000
    endloop
  endfacet
  facet normal 0.000000e+000 1.329608e-015 1.000000e+000
    outer loop
      vertex   -1.845817e+002 1.507542e+002 -5.920000e+000
      vertex   -1.597417e+002 1.540942e+002 -5.920000e+000
      vertex   -1.845817e+002 1.540942e+002 -5.920000e+000
    endloop
  endfacet
  facet normal 0.000000e+000 -0.000000e+000 1.000000e+000
    outer loop
      vertex   -1.880817e+002 1.517542e+002 -5.920000e+000
      vertex   -1.845817e+002 1.540942e+002 -5.920000e+000
      vertex   -1.880817e+002 1.530942e+002 -5.920000e+000
    endloop
  endfacet
  facet normal -8.889382e-016 1.329608e-015 1.000000e+000
    outer loop
      vertex   -1.880817e+002 1.517542e+002 -5.920000e+000
      vertex   -1.845817e+002 1.507542e+002 -5.920000e+000
      vertex   -1.845817e+002 1.540942e+002 -5.920000e+000
    endloop
  endfacet
  facet normal -1.065814e-015 7.105427e-016 1.000000e+000
    outer loop
      vertex   -1.880817e+002 1.517542e+002 -5.920000e+000
      vertex   -1.870817e+002 1.507542e+002 -5.920000e+000
      vertex   -1.845817e+002 1.507542e+002 -5.920000e+000
    endloop
  endfacet
  facet normal 1.776357e-015 -6.217249e-015 1.000000e+000
    outer loop
      vertex   -1.845817e+002 1.540942e+002 -5.920000e+000
      vertex   -1.870817e+002 1.540942e+002 -5.920000e+000
      vertex   -1.880817e+002 1.530942e+002 -5.920000e+000
    endloop
  endfacet
  facet normal 0.000000e+000 1.000000e+000 -0.000000e+000
    outer loop
      vertex   -1.572417e+002 1.540942e+002 -1.225000e+001
      vertex   -1.597417e+002 1.540942e+002 -1.225000e+001
      vertex   -1.572417e+002 1.540942e+002 -5.920000e+000
    endloop
  endfacet
  facet normal 0.000000e+000 1.000000e+000 -0.000000e+000
    outer loop
      vertex   -1.572417e+002 1.540942e+002 -5.920000e+000
      vertex   -1.597417e+002 1.540942e+002 -1.225000e+001
      vertex   -1.597417e+002 1.540942e+002 -5.920000e+000
    endloop
  endfacet
  facet normal 7.071068e-001 7.071068e-001 0.000000e+000
    outer loop
      vertex   -1.562417e+002 1.530942e+002 -5.920000e+000
      vertex   -1.562417e+002 1.530942e+002 -1.225000e+001
      vertex   -1.572417e+002 1.540942e+002 -5.920000e+000
    endloop
  endfacet
  facet normal 7.071068e-001 7.071068e-001 0.000000e+000
    outer loop
      vertex   -1.572417e+002 1.540942e+002 -5.920000e+000
      vertex   -1.562417e+002 1.530942e+002 -1.225000e+001
      vertex   -1.572417e+002 1.540942e+002 -1.225000e+001
    endloop
  endfacet
  facet normal 1.000000e+000 0.000000e+000 -0.000000e+000
    outer loop
      vertex   -1.562417e+002 1.517542e+002 -1.225000e+001
      vertex   -1.562417e+002 1.530942e+002 -1.225000e+001
      vertex   -1.562417e+002 1.517542e+002 -5.920000e+000
    endloop
  endfacet
  facet normal 1.000000e+000 -0.000000e+000 0.000000e+000
    outer loop
      vertex   -1.562417e+002 1.517542e+002 -5.920000e+000
      vertex   -1.562417e+002 1.530942e+002 -1.225000e+001
      vertex   -1.562417e+002 1.530942e+002 -5.920000e+000
    endloop
  endfacet
  facet normal 7.071068e-001 -7.071068e-001 -3.174911e-015
    outer loop
      vertex   -1.572417e+002 1.507542e+002 -5.920000e+000
      vertex   -1.572417e+002 1.507542e+002 -1.225000e+001
      vertex   -1.562417e+002 1.517542e+002 -5.920000e+000
    endloop
  endfacet
  facet normal 7.071068e-001 -7.071068e-001 0.000000e+000
    outer loop
      vertex   -1.562417e+002 1.517542e+002 -5.920000e+000
      vertex   -1.572417e+002 1.507542e+002 -1.225000e+001
      vertex   -1.562417e+002 1.517542e+002 -1.225000e+001
    endloop
  endfacet
  facet normal 1.136868e-014 -1.000000e+000 0.000000e+000
    outer loop
      vertex   -1.597417e+002 1.507542e+002 -1.225000e+001
      vertex   -1.572417e+002 1.507542e+002 -1.225000e+001
      vertex   -1.597417e+002 1.507542e+002 -5.920000e+000
    endloop
  endfacet
  facet normal -4.785507e-030 -1.000000e+000 -4.490001e-015
    outer loop
      vertex   -1.597417e+002 1.507542e+002 -5.920000e+000
      vertex   -1.572417e+002 1.507542e+002 -1.225000e+001
      vertex   -1.572417e+002 1.507542e+002 -5.920000e+000
    endloop
  endfacet
  facet normal 1.000000e+000 0.000000e+000 -0.000000e+000
    outer loop
      vertex   -1.597417e+002 1.467542e+002 -1.225000e+001
      vertex   -1.597417e+002 1.507542e+002 -1.225000e+001
      vertex   -1.597417e+002 1.467542e+002 -5.920000e+000
    endloop
  endfacet
  facet normal 1.000000e+000 -0.000000e+000 0.000000e+000
    outer loop
      vertex   -1.597417e+002 1.467542e+002 -5.920000e+000
      vertex   -1.597417e+002 1.507542e+002 -1.225000e+001
      vertex   -1.597417e+002 1.507542e+002 -5.920000e+000
    endloop
  endfacet
  facet normal 0.000000e+000 -1.000000e+000 0.000000e+000
    outer loop
      vertex   -1.845817e+002 1.467542e+002 -1.225000e+001
      vertex   -1.597417e+002 1.467542e+002 -1.225000e+001
      vertex   -1.845817e+002 1.467542e+002 -5.920000e+000
    endloop
  endfacet
  facet normal 0.000000e+000 -1.000000e+000 0.000000e+000
    outer loop
      vertex   -1.845817e+002 1.467542e+002 -5.920000e+000
      vertex   -1.597417e+002 1.467542e+002 -1.225000e+001
      vertex   -1.597417e+002 1.467542e+002 -5.920000e+000
    endloop
  endfacet
  facet normal 0.000000e+000 1.000000e+000 -0.000000e+000
    outer loop
      vertex   -1.597417e+002 1.675942e+002 -1.025000e+001
      vertex   -1.845817e+002 1.675942e+002 -1.025000e+001
      vertex   -1.597417e+002 1.675942e+002 -5.920000e+000
    endloop
  endfacet
  facet normal 0.000000e+000 1.000000e+000 -0.000000e+000
    outer loop
      vertex   -1.597417e+002 1.675942e+002 -5.920000e+000
      vertex   -1.845817e+002 1.675942e+002 -1.025000e+001
      vertex   -1.845817e+002 1.675942e+002 -5.920000e+000
    endloop
  endfacet
  facet normal -1.000000e+000 0.000000e+000 0.000000e+000
    outer loop
      vertex   -1.845817e+002 1.655942e+002 -1.225000e+001
      vertex   -1.845817e+002 1.540942e+002 -1.225000e+001
      vertex   -1.845817e+002 1.675942e+002 -1.025000e+001
    endloop
  endfacet
  facet normal -1.000000e+000 -0.000000e+000 0.000000e+000
    outer loop
      vertex   -1.845817e+002 1.675942e+002 -1.025000e+001
      vertex   -1.845817e+002 1.540942e+002 -1.225000e+001
      vertex   -1.845817e+002 1.540942e+002 -5.920000e+000
    endloop
  endfacet
  facet normal -1.000000e+000 -0.000000e+000 -0.000000e+000
    outer loop
      vertex   -1.845817e+002 1.675942e+002 -5.920000e+000
      vertex   -1.845817e+002 1.675942e+002 -1.025000e+001
      vertex   -1.845817e+002 1.540942e+002 -5.920000e+000
    endloop
  endfacet
  facet normal -7.071068e-001 -7.071068e-001 -0.000000e+000
    outer loop
      vertex   -1.880817e+002 1.517542e+002 -5.920000e+000
      vertex   -1.880817e+002 1.517542e+002 -1.225000e+001
      vertex   -1.870817e+002 1.507542e+002 -5.920000e+000
    endloop
  endfacet
  facet normal -7.071068e-001 -7.071068e-001 0.000000e+000
    outer loop
      vertex   -1.870817e+002 1.507542e+002 -5.920000e+000
      vertex   -1.880817e+002 1.517542e+002 -1.225000e+001
      vertex   -1.870817e+002 1.507542e+002 -1.225000e+001
    endloop
  endfacet
  facet normal -1.000000e+000 0.000000e+000 0.000000e+000
    outer loop
      vertex   -1.880817e+002 1.530942e+002 -1.225000e+001
      vertex   -1.880817e+002 1.517542e+002 -1.225000e+001
      vertex   -1.880817e+002 1.530942e+002 -5.920000e+000
    endloop
  endfacet
  facet normal -1.000000e+000 -0.000000e+000 0.000000e+000
    outer loop
      vertex   -1.880817e+002 1.530942e+002 -5.920000e+000
      vertex   -1.880817e+002 1.517542e+002 -1.225000e+001
      vertex   -1.880817e+002 1.517542e+002 -5.920000e+000
    endloop
  endfacet
  facet normal -7.071068e-001 7.071068e-001 0.000000e+000
    outer loop
      vertex   -1.870817e+002 1.540942e+002 -5.920000e+000
      vertex   -1.870817e+002 1.540942e+002 -1.225000e+001
      vertex   -1.880817e+002 1.530942e+002 -5.920000e+000
    endloop
  endfacet
  facet normal -7.071068e-001 7.071068e-001 0.000000e+000
    outer loop
      vertex   -1.880817e+002 1.530942e+002 -5.920000e+000
      vertex   -1.870817e+002 1.540942e+002 -1.225000e+001
      vertex   -1.880817e+002 1.530942e+002 -1.225000e+001
    endloop
  endfacet
  facet normal 0.000000e+000 1.000000e+000 -0.000000e+000
    outer loop
      vertex   -1.845817e+002 1.540942e+002 -1.225000e+001
      vertex   -1.870817e+002 1.540942e+002 -1.225000e+001
      vertex   -1.845817e+002 1.540942e+002 -5.920000e+000
    endloop
  endfacet
  facet normal 0.000000e+000 1.000000e+000 -0.000000e+000
    outer loop
      vertex   -1.845817e+002 1.540942e+002 -5.920000e+000
      vertex   -1.870817e+002 1.540942e+002 -1.225000e+001
      vertex   -1.870817e+002 1.540942e+002 -5.920000e+000
    endloop
  endfacet
  facet normal 0.000000e+000 -1.000000e+000 0.000000e+000
    outer loop
      vertex   -1.870817e+002 1.507542e+002 -1.225000e+001
      vertex   -1.845817e+002 1.507542e+002 -1.225000e+001
      vertex   -1.870817e+002 1.507542e+002 -5.920000e+000
    endloop
  endfacet
  facet normal -1.136868e-014 -1.000000e+000 -4.490001e-015
    outer loop
      vertex   -1.870817e+002 1.507542e+002 -5.920000e+000
      vertex   -1.845817e+002 1.507542e+002 -1.225000e+001
      vertex   -1.845817e+002 1.507542e+002 -5.920000e+000
    endloop
  endfacet
  facet normal -1.000000e+000 0.000000e+000 0.000000e+000
    outer loop
      vertex   -1.845817e+002 1.507542e+002 -1.225000e+001
      vertex   -1.845817e+002 1.467542e+002 -1.225000e+001
      vertex   -1.845817e+002 1.507542e+002 -5.920000e+000
    endloop
  endfacet
  facet normal -1.000000e+000 -0.000000e+000 0.000000e+000
    outer loop
      vertex   -1.845817e+002 1.507542e+002 -5.920000e+000
      vertex   -1.845817e+002 1.467542e+002 -1.225000e+001
      vertex   -1.845817e+002 1.467542e+002 -5.920000e+000
    endloop
  endfacet
endsolid
solid ascii
  facet normal 0.000000e+000 7.071068e-001 -7.071068e-001
    outer loop
      vertex   -1.247417e+002 1.655942e+002 -1.225000e+001
      vertex   -1.495817e+002 1.655942e+002 -1.225000e+001
      vertex   -1.247417e+002 1.675942e+002 -1.025000e+001
    endloop
  endfacet
  facet normal 0.000000e+000 7.071068e-001 -7.071068e-001
    outer loop
      vertex   -1.247417e+002 1.675942e+002 -1.025000e+001
      vertex   -1.495817e+002 1.655942e+002 -1.225000e+001
      vertex   -1.495817e+002 1.675942e+002 -1.025000e+001
    endloop
  endfacet
  facet normal -0.000000e+000 0.000000e+000 -1.000000e+000
    outer loop
      vertex   -1.247417e+002 1.655942e+002 -1.225000e+001
      vertex   -1.247417e+002 1.540942e+002 -1.225000e+001
      vertex   -1.495817e+002 1.655942e+002 -1.225000e+001
    endloop
  endfacet
  facet normal -0.000000e+000 -0.000000e+000 -1.000000e+000
    outer loop
      vertex   -1.495817e+002 1.655942e+002 -1.225000e+001
      vertex   -1.247417e+002 1.540942e+002 -1.225000e+001
      vertex   -1.495817e+002 1.540942e+002 -1.225000e+001
    endloop
  endfacet
  facet normal 0.000000e+000 0.000000e+000 -1.000000e+000
    outer loop
      vertex   -1.495817e+002 1.540942e+002 -1.225000e+001
      vertex   -1.247417e+002 1.540942e+002 -1.225000e+001
      vertex   -1.247417e+002 1.507542e+002 -1.225000e+001
    endloop
  endfacet
  facet normal 0.000000e+000 0.000000e+000 -1.000000e+000
    outer loop
      vertex   -1.495817e+002 1.507542e+002 -1.225000e+001
      vertex   -1.247417e+002 1.507542e+002 -1.225000e+001
      vertex   -1.247417e+002 1.467542e+002 -1.225000e+001
    endloop
  endfacet
  facet normal 0.000000e+000 0.000000e+000 -1.000000e+000
    outer loop
      vertex   -1.495817e+002 1.467542e+002 -1.225000e+001
      vertex   -1.495817e+002 1.507542e+002 -1.225000e+001
      vertex   -1.247417e+002 1.467542e+002 -1.225000e+001
    endloop
  endfacet
  facet normal -0.000000e+000 -0.000000e+000 -1.000000e+000
    outer loop
      vertex   -1.222417e+002 1.540942e+002 -1.225000e+001
      vertex   -1.212417e+002 1.530942e+002 -1.225000e+001
      vertex   -1.247417e+002 1.540942e+002 -1.225000e+001
    endloop
  endfacet
  facet normal 0.000000e+000 0.000000e+000 -1.000000e+000
    outer loop
      vertex   -1.247417e+002 1.540942e+002 -1.225000e+001
      vertex   -1.212417e+002 1.530942e+002 -1.225000e+001
      vertex   -1.212417e+002 1.517542e+002 -1.225000e+001
    endloop
  endfacet
  facet normal 0.000000e+000 -0.000000e+000 -1.000000e+000
    outer loop
      vertex   -1.247417e+002 1.507542e+002 -1.225000e+001
      vertex   -1.212417e+002 1.517542e+002 -1.225000e+001
      vertex   -1.222417e+002 1.507542e+002 -1.225000e+001
    endloop
  endfacet
  facet normal 0.000000e+000 0.000000e+000 -1.000000e+000
    outer loop
      vertex   -1.247417e+002 1.507542e+002 -1.225000e+001
      vertex   -1.247417e+002 1.540942e+002 -1.225000e+001
      vertex   -1.212417e+002 1.517542e+002 -1.225000e+001
    endloop
  endfacet
  facet normal -0.000000e+000 -0.000000e+000 -1.000000e+000
    outer loop
      vertex   -1.495817e+002 1.540942e+002 -1.225000e+001
      vertex   -1.247417e+002 1.507542e+002 -1.225000e+001
      vertex   -1.495817e+002 1.507542e+002 -1.225000e+001
    endloop
  endfacet
  facet normal -0.000000e+000 -0.000000e+000 -1.000000e+000
    outer loop
      vertex   -1.530817e+002 1.530942e+002 -1.225000e+001
      vertex   -1.495817e+002 1.507542e+002 -1.225000e+001
      vertex   -1.530817e+002 1.517542e+002 -1.225000e+001
    endloop
  endfacet
  facet normal 0.000000e+000 0.000000e+000 -1.000000e+000
    outer loop
      vertex   -1.530817e+002 1.530942e+002 -1.225000e+001
      vertex   -1.495817e+002 1.540942e+002 -1.225000e+001
      vertex   -1.495817e+002 1.507542e+002 -1.225000e+001
    endloop
  endfacet
  facet normal 0.000000e+000 0.000000e+000 -1.000000e+000
    outer loop
      vertex   -1.530817e+002 1.530942e+002 -1.225000e+001
      vertex   -1.520817e+002 1.540942e+002 -1.225000e+001
      vertex   -1.495817e+002 1.540942e+002 -1.225000e+001
    endloop
  endfacet
  facet normal 0.000000e+000 0.000000e+000 -1.000000e+000
    outer loop
      vertex   -1.495817e+002 1.507542e+002 -1.225000e+001
      vertex   -1.520817e+002 1.507542e+002 -1.225000e+001
      vertex   -1.530817e+002 1.517542e+002 -1.225000e+001
    endloop
  endfacet
  facet normal 1.000000e+000 -2.471453e-015 0.000000e+000
    outer loop
      vertex   -1.247417e+002 1.540942e+002 -1.225000e+001
      vertex   -1.247417e+002 1.655942e+002 -1.225000e+001
      vertex   -1.247417e+002 1.540942e+002 2.080000e+000
    endloop
  endfacet
  facet normal 1.000000e+000 6.783579e-015 7.427276e-015
    outer loop
      vertex   -1.247417e+002 1.540942e+002 2.080000e+000
      vertex   -1.247417e+002 1.655942e+002 -1.225000e+001
      vertex   -1.247417e+002 1.675942e+002 -1.025000e+001
    endloop
  endfacet
  facet normal 1.000000e+000 0.000000e+000 0.000000e+000
    outer loop
      vertex   -1.247417e+002 1.675942e+002 2.080000e+000
      vertex   -1.247417e+002 1.540942e+002 2.080000e+000
      vertex   -1.247417e+002 1.675942e+002 -1.025000e+001
    endloop
  endfacet
  facet normal 0.000000e+000 -0.000000e+000 1.000000e+000
    outer loop
      vertex   -1.247417e+002 1.467542e+002 2.080000e+000
      vertex   -1.247417e+002 1.507542e+002 2.080000e+000
      vertex   -1.495817e+002 1.467542e+002 2.080000e+000
    endloop
  endfacet
  facet normal 0.000000e+000 -0.000000e+000 1.000000e+000
    outer loop
      vertex   -1.495817e+002 1.467542e+002 2.080000e+000
      vertex   -1.247417e+002 1.507542e+002 2.080000e+000
      vertex   -1.495817e+002 1.507542e+002 2.080000e+000
    endloop
  endfacet
  facet normal -1.521326e-030 1.329608e-015 1.000000e+000
    outer loop
      vertex   -1.495817e+002 1.507542e+002 2.080000e+000
      vertex   -1.247417e+002 1.507542e+002 2.080000e+000
      vertex   -1.247417e+002 1.540942e+002 2.080000e+000
    endloop
  endfacet
  facet normal 0.000000e+000 -3.289550e-016 1.000000e+000
    outer loop
      vertex   -1.495817e+002 1.540942e+002 2.080000e+000
      vertex   -1.247417e+002 1.540942e+002 2.080000e+000
      vertex   -1.247417e+002 1.675942e+002 2.080000e+000
    endloop
  endfacet
  facet normal -8.938994e-017 -1.644775e-016 1.000000e+000
    outer loop
      vertex   -1.495817e+002 1.675942e+002 2.080000e+000
      vertex   -1.495817e+002 1.540942e+002 2.080000e+000
      vertex   -1.247417e+002 1.675942e+002 2.080000e+000
    endloop
  endfacet
  facet normal 8.881784e-016 1.332268e-015 1.000000e+000
    outer loop
      vertex   -1.222417e+002 1.507542e+002 2.080000e+000
      vertex   -1.212417e+002 1.517542e+002 2.080000e+000
      vertex   -1.247417e+002 1.507542e+002 2.080000e+000
    endloop
  endfacet
  facet normal 1.268826e-015 -0.000000e+000 1.000000e+000
    outer loop
      vertex   -1.247417e+002 1.507542e+002 2.080000e+000
      vertex   -1.212417e+002 1.517542e+002 2.080000e+000
      vertex   -1.212417e+002 1.530942e+002 2.080000e+000
    endloop
  endfacet
  facet normal -1.776357e-015 -6.217249e-015 1.000000e+000
    outer loop
      vertex   -1.247417e+002 1.540942e+002 2.080000e+000
      vertex   -1.212417e+002 1.530942e+002 2.080000e+000
      vertex   -1.222417e+002 1.540942e+002 2.080000e+000
    endloop
  endfacet
  facet normal 3.798881e-016 1.329608e-015 1.000000e+000
    outer loop
      vertex   -1.247417e+002 1.540942e+002 2.080000e+000
      vertex   -1.247417e+002 1.507542e+002 2.080000e+000
      vertex   -1.212417e+002 1.530942e+002 2.080000e+000
    endloop
  endfacet
  facet normal 0.000000e+000 1.329608e-015 1.000000e+000
    outer loop
      vertex   -1.495817e+002 1.507542e+002 2.080000e+000
      vertex   -1.247417e+002 1.540942e+002 2.080000e+000
      vertex   -1.495817e+002 1.540942e+002 2.080000e+000
    endloop
  endfacet
  facet normal 0.000000e+000 -0.000000e+000 1.000000e+000
    outer loop
      vertex   -1.530817e+002 1.517542e+002 2.080000e+000
      vertex   -1.495817e+002 1.540942e+002 2.080000e+000
      vertex   -1.530817e+002 1.530942e+002 2.080000e+000
    endloop
  endfacet
  facet normal -8.889382e-016 1.329608e-015 1.000000e+000
    outer loop
      vertex   -1.530817e+002 1.517542e+002 2.080000e+000
      vertex   -1.495817e+002 1.507542e+002 2.080000e+000
      vertex   -1.495817e+002 1.540942e+002 2.080000e+000
    endloop
  endfacet
  facet normal -8.881784e-016 1.332268e-015 1.000000e+000
    outer loop
      vertex   -1.530817e+002 1.517542e+002 2.080000e+000
      vertex   -1.520817e+002 1.507542e+002 2.080000e+000
      vertex   -1.495817e+002 1.507542e+002 2.080000e+000
    endloop
  endfacet
  facet normal 1.776357e-015 -6.217249e-015 1.000000e+000
    outer loop
      vertex   -1.495817e+002 1.540942e+002 2.080000e+000
      vertex   -1.520817e+002 1.540942e+002 2.080000e+000
      vertex   -1.530817e+002 1.530942e+002 2.080000e+000
    endloop
  endfacet
  facet normal 0.000000e+000 1.000000e+000 -0.000000e+000
    outer loop
      vertex   -1.222417e+002 1.540942e+002 -1.225000e+001
      vertex   -1.247417e+002 1.540942e+002 -1.225000e+001
      vertex   -1.222417e+002 1.540942e+002 2.080000e+000
    endloop
  endfacet
  facet normal 0.000000e+000 1.000000e+000 -0.000000e+000
    outer loop
      vertex   -1.222417e+002 1.540942e+002 2.080000e+000
      vertex   -1.247417e+002 1.540942e+002 -1.225000e+001
      vertex   -1.247417e+002 1.540942e+002 2.080000e+000
    endloop
  endfacet
  facet normal 7.071068e-001 7.071068e-001 0.000000e+000
    outer loop
      vertex   -1.212417e+002 1.530942e+002 2.080000e+000
      vertex   -1.212417e+002 1.530942e+002 -1.225000e+001
      vertex   -1.222417e+002 1.540942e+002 2.080000e+000
    endloop
  endfacet
  facet normal 7.071068e-001 7.071068e-001 0.000000e+000
    outer loop
      vertex   -1.222417e+002 1.540942e+002 2.080000e+000
      vertex   -1.212417e+002 1.530942e+002 -1.225000e+001
      vertex   -1.222417e+002 1.540942e+002 -1.225000e+001
    endloop
  endfacet
  facet normal 1.000000e+000 0.000000e+000 -0.000000e+000
    outer loop
      vertex   -1.212417e+002 1.517542e+002 -1.225000e+001
      vertex   -1.212417e+002 1.530942e+002 -1.225000e+001
      vertex   -1.212417e+002 1.517542e+002 2.080000e+000
    endloop
  endfacet
  facet normal 1.000000e+000 -0.000000e+000 0.000000e+000
    outer loop
      vertex   -1.212417e+002 1.517542e+002 2.080000e+000
      vertex   -1.212417e+002 1.530942e+002 -1.225000e+001
      vertex   -1.212417e+002 1.530942e+002 2.080000e+000
    endloop
  endfacet
  facet normal 7.071068e-001 -7.071068e-001 -1.402455e-015
    outer loop
      vertex   -1.222417e+002 1.507542e+002 2.080000e+000
      vertex   -1.222417e+002 1.507542e+002 -1.225000e+001
      vertex   -1.212417e+002 1.517542e+002 2.080000e+000
    endloop
  endfacet
  facet normal 7.071068e-001 -7.071068e-001 0.000000e+000
    outer loop
      vertex   -1.212417e+002 1.517542e+002 2.080000e+000
      vertex   -1.222417e+002 1.507542e+002 -1.225000e+001
      vertex   -1.212417e+002 1.517542e+002 -1.225000e+001
    endloop
  endfacet
  facet normal 1.136868e-014 -1.000000e+000 0.000000e+000
    outer loop
      vertex   -1.247417e+002 1.507542e+002 -1.225000e+001
      vertex   -1.222417e+002 1.507542e+002 -1.225000e+001
      vertex   -1.247417e+002 1.507542e+002 2.080000e+000
    endloop
  endfacet
  facet normal -1.409270e-030 -1.000000e+000 -1.983371e-015
    outer loop
      vertex   -1.247417e+002 1.507542e+002 2.080000e+000
      vertex   -1.222417e+002 1.507542e+002 -1.225000e+001
      vertex   -1.222417e+002 1.507542e+002 2.080000e+000
    endloop
  endfacet
  facet normal 1.000000e+000 0.000000e+000 -0.000000e+000
    outer loop
      vertex   -1.247417e+002 1.467542e+002 -1.225000e+001
      vertex   -1.247417e+002 1.507542e+002 -1.225000e+001
      vertex   -1.247417e+002 1.467542e+002 2.080000e+000
    endloop
  endfacet
  facet normal 1.000000e+000 -0.000000e+000 0.000000e+000
    outer loop
      vertex   -1.247417e+002 1.467542e+002 2.080000e+000
      vertex   -1.247417e+002 1.507542e+002 -1.225000e+001
      vertex   -1.247417e+002 1.507542e+002 2.080000e+000
    endloop
  endfacet
  facet normal 0.000000e+000 -1.000000e+000 0.000000e+000
    outer loop
      vertex   -1.495817e+002 1.467542e+002 -1.225000e+001
      vertex   -1.247417e+002 1.467542e+002 -1.225000e+001
      vertex   -1.495817e+002 1.467542e+002 2.080000e+000
    endloop
  endfacet
  facet normal 0.000000e+000 -1.000000e+000 0.000000e+000
    outer loop
      vertex   -1.495817e+002 1.467542e+002 2.080000e+000
      vertex   -1.247417e+002 1.467542e+002 -1.225000e+001
      vertex   -1.247417e+002 1.467542e+002 2.080000e+000
    endloop
  endfacet
  facet normal 0.000000e+000 1.000000e+000 -0.000000e+000
    outer loop
      vertex   -1.247417e+002 1.675942e+002 -1.025000e+001
      vertex   -1.495817e+002 1.675942e+002 -1.025000e+001
      vertex   -1.247417e+002 1.675942e+002 2.080000e+000
    endloop
  endfacet
  facet normal 0.000000e+000 1.000000e+000 -0.000000e+000
    outer loop
      vertex   -1.247417e+002 1.675942e+002 2.080000e+000
      vertex   -1.495817e+002 1.675942e+002 -1.025000e+001
      vertex   -1.495817e+002 1.675942e+002 2.080000e+000
    endloop
  endfacet
  facet normal -1.000000e+000 -0.000000e+000 -0.000000e+000
    outer loop
      vertex   -1.495817e+002 1.675942e+002 2.080000e+000
      vertex   -1.495817e+002 1.675942e+002 -1.025000e+001
      vertex   -1.495817e+002 1.540942e+002 2.080000e+000
    endloop
  endfacet
  facet normal -1.000000e+000 0.000000e+000 -0.000000e+000
    outer loop
      vertex   -1.495817e+002 1.540942e+002 2.080000e+000
      vertex   -1.495817e+002 1.675942e+002 -1.025000e+001
      vertex   -1.495817e+002 1.655942e+002 -1.225000e+001
    endloop
  endfacet
  facet normal -1.000000e+000 0.000000e+000 0.000000e+000
    outer loop
      vertex   -1.495817e+002 1.540942e+002 -1.225000e+001
      vertex   -1.495817e+002 1.540942e+002 2.080000e+000
      vertex   -1.495817e+002 1.655942e+002 -1.225000e+001
    endloop
  endfacet
  facet normal -7.071068e-001 -7.071068e-001 -0.000000e+000
    outer loop
      vertex   -1.530817e+002 1.517542e+002 2.080000e+000
      vertex   -1.530817e+002 1.517542e+002 -1.225000e+001
      vertex   -1.520817e+002 1.507542e+002 2.080000e+000
    endloop
  endfacet
  facet normal -7.071068e-001 -7.071068e-001 0.000000e+000
    outer loop
      vertex   -1.520817e+002 1.507542e+002 2.080000e+000
      vertex   -1.530817e+002 1.517542e+002 -1.225000e+001
      vertex   -1.520817e+002 1.507542e+002 -1.225000e+001
    endloop
  endfacet
  facet normal -1.000000e+000 0.000000e+000 0.000000e+000
    outer loop
      vertex   -1.530817e+002 1.530942e+002 -1.225000e+001
      vertex   -1.530817e+002 1.517542e+002 -1.225000e+001
      vertex   -1.530817e+002 1.530942e+002 2.080000e+000
    endloop
  endfacet
  facet normal -1.000000e+000 -0.000000e+000 0.000000e+000
    outer loop
      vertex   -1.530817e+002 1.530942e+002 2.080000e+000
      vertex   -1.530817e+002 1.517542e+002 -1.225000e+001
      vertex   -1.530817e+002 1.517542e+002 2.080000e+000
    endloop
  endfacet
  facet normal -7.071068e-001 7.071068e-001 0.000000e+000
    outer loop
      vertex   -1.520817e+002 1.540942e+002 2.080000e+000
      vertex   -1.520817e+002 1.540942e+002 -1.225000e+001
      vertex   -1.530817e+002 1.530942e+002 2.080000e+000
    endloop
  endfacet
  facet normal -7.071068e-001 7.071068e-001 0.000000e+000
    outer loop
      vertex   -1.530817e+002 1.530942e+002 2.080000e+000
      vertex   -1.520817e+002 1.540942e+002 -1.225000e+001
      vertex   -1.530817e+002 1.530942e+002 -1.225000e+001
    endloop
  endfacet
  facet normal 0.000000e+000 1.000000e+000 -0.000000e+000
    outer loop
      vertex   -1.495817e+002 1.540942e+002 -1.225000e+001
      vertex   -1.520817e+002 1.540942e+002 -1.225000e+001
      vertex   -1.495817e+002 1.540942e+002 2.080000e+000
    endloop
  endfacet
  facet normal 0.000000e+000 1.000000e+000 -0.000000e+000
    outer loop
      vertex   -1.495817e+002 1.540942e+002 2.080000e+000
      vertex   -1.520817e+002 1.540942e+002 -1.225000e+001
      vertex   -1.520817e+002 1.540942e+002 2.080000e+000
    endloop
  endfacet
  facet normal 0.000000e+000 -1.000000e+000 0.000000e+000
    outer loop
      vertex   -1.520817e+002 1.507542e+002 -1.225000e+001
      vertex   -1.495817e+002 1.507542e+002 -1.225000e+001
      vertex   -1.520817e+002 1.507542e+002 2.080000e+000
    endloop
  endfacet
  facet normal -1.136868e-014 -1.000000e+000 -1.983371e-015
    outer loop
      vertex   -1.520817e+002 1.507542e+002 2.080000e+000
      vertex   -1.495817e+002 1.507542e+002 -1.225000e+001
      vertex   -1.495817e+002 1.507542e+002 2.080000e+000
    endloop
  endfacet
  facet normal -1.000000e+000 0.000000e+000 0.000000e+000
    outer loop
      vertex   -1.495817e+002 1.507542e+002 -1.225000e+001
      vertex   -1.495817e+002 1.467542e+002 -1.225000e+001
      vertex   -1.495817e+002 1.507542e+002 2.080000e+000
    endloop
  endfacet
  facet normal -1.000000e+000 -0.000000e+000 0.000000e+000
    outer loop
      vertex   -1.495817e+002 1.507542e+002 2.080000e+000
      vertex   -1.495817e+002 1.467542e+002 -1.225000e+001
      vertex   -1.495817e+002 1.467542e+002 2.080000e+000
    endloop
  endfacet
endsolid
