solid ascii
  facet normal -0.000000e+000 1.000000e+000 0.000000e+000
    outer loop
      vertex   -1.067500e+002 1.360000e+002 1.675000e+001
      vertex   -1.042500e+002 1.360000e+002 1.675000e+001
      vertex   -1.067500e+002 1.360000e+002 -7.500000e-001
    endloop
  endfacet
  facet normal -0.000000e+000 1.000000e+000 0.000000e+000
    outer loop
      vertex   -1.067500e+002 1.360000e+002 -7.500000e-001
      vertex   -1.042500e+002 1.360000e+002 1.675000e+001
      vertex   -1.042500e+002 1.360000e+002 -7.500000e-001
    endloop
  endfacet
  facet normal -0.000000e+000 1.000000e+000 0.000000e+000
    outer loop
      vertex   -8.575000e+001 1.360000e+002 1.675000e+001
      vertex   -8.325000e+001 1.360000e+002 1.675000e+001
      vertex   -8.575000e+001 1.360000e+002 -7.500000e-001
    endloop
  endfacet
  facet normal -0.000000e+000 1.000000e+000 0.000000e+000
    outer loop
      vertex   -8.575000e+001 1.360000e+002 -7.500000e-001
      vertex   -8.325000e+001 1.360000e+002 1.675000e+001
      vertex   -8.325000e+001 1.360000e+002 -7.500000e-001
    endloop
  endfacet
  facet normal -1.044916e-016 -2.242651e-015 1.000000e+000
    outer loop
      vertex   -8.575000e+001 1.310000e+002 -7.500000e-001
      vertex   -8.575000e+001 1.360000e+002 -7.500000e-001
      vertex   -9.000000e+001 1.310000e+002 -7.500000e-001
    endloop
  endfacet
  facet normal -6.628685e-015 3.302913e-015 1.000000e+000
    outer loop
      vertex   -9.000000e+001 1.310000e+002 -7.500000e-001
      vertex   -8.575000e+001 1.360000e+002 -7.500000e-001
      vertex   -8.575000e+001 1.400000e+002 -7.500000e-001
    endloop
  endfacet
  facet normal -2.089832e-016 2.097088e-016 1.000000e+000
    outer loop
      vertex   -9.000000e+001 1.490000e+002 -7.500000e-001
      vertex   -8.575000e+001 1.400000e+002 -7.500000e-001
      vertex   -8.575000e+001 1.490000e+002 -7.500000e-001
    endloop
  endfacet
  facet normal -1.436759e-016 2.405483e-016 1.000000e+000
    outer loop
      vertex   -9.000000e+001 1.490000e+002 -7.500000e-001
      vertex   -9.000000e+001 1.310000e+002 -7.500000e-001
      vertex   -8.575000e+001 1.400000e+002 -7.500000e-001
    endloop
  endfacet
  facet normal 8.881784e-016 -5.551115e-016 1.000000e+000
    outer loop
      vertex   -8.325000e+001 1.360000e+002 -7.500000e-001
      vertex   -8.325000e+001 1.400000e+002 -7.500000e-001
      vertex   -8.575000e+001 1.360000e+002 -7.500000e-001
    endloop
  endfacet
  facet normal -5.284662e-015 3.302913e-015 1.000000e+000
    outer loop
      vertex   -8.575000e+001 1.360000e+002 -7.500000e-001
      vertex   -8.325000e+001 1.400000e+002 -7.500000e-001
      vertex   -8.575000e+001 1.400000e+002 -7.500000e-001
    endloop
  endfacet
  facet normal -1.000000e+000 0.000000e+000 -0.000000e+000
    outer loop
      vertex   -8.325000e+001 1.360000e+002 1.675000e+001
      vertex   -8.325000e+001 1.400000e+002 1.675000e+001
      vertex   -8.325000e+001 1.360000e+002 -7.500000e-001
    endloop
  endfacet
  facet normal -1.000000e+000 0.000000e+000 0.000000e+000
    outer loop
      vertex   -8.325000e+001 1.360000e+002 -7.500000e-001
      vertex   -8.325000e+001 1.400000e+002 1.675000e+001
      vertex   -8.325000e+001 1.400000e+002 -7.500000e-001
    endloop
  endfacet
  facet normal 7.071068e-001 1.744547e-016 7.071068e-001
    outer loop
      vertex   -9.800000e+001 1.490000e+002 -2.750000e+000
      vertex   -1.000000e+002 1.490000e+002 -7.500000e-001
      vertex   -9.800000e+001 1.310000e+002 -2.750000e+000
    endloop
  endfacet
  facet normal 7.071068e-001 1.700933e-016 7.071068e-001
    outer loop
      vertex   -9.800000e+001 1.310000e+002 -2.750000e+000
      vertex   -1.000000e+002 1.490000e+002 -7.500000e-001
      vertex   -1.000000e+002 1.310000e+002 -7.500000e-001
    endloop
  endfacet
  facet normal 6.791953e-016 -1.754152e-015 1.000000e+000
    outer loop
      vertex   -1.042500e+002 1.310000e+002 -7.500000e-001
      vertex   -1.000000e+002 1.310000e+002 -7.500000e-001
      vertex   -1.042500e+002 1.360000e+002 -7.500000e-001
    endloop
  endfacet
  facet normal 5.877651e-015 2.664535e-015 1.000000e+000
    outer loop
      vertex   -1.042500e+002 1.360000e+002 -7.500000e-001
      vertex   -1.000000e+002 1.310000e+002 -7.500000e-001
      vertex   -1.042500e+002 1.400000e+002 -7.500000e-001
    endloop
  endfacet
  facet normal 4.263256e-015 -5.551115e-016 1.000000e+000
    outer loop
      vertex   -1.067500e+002 1.360000e+002 -7.500000e-001
      vertex   -1.042500e+002 1.400000e+002 -7.500000e-001
      vertex   -1.067500e+002 1.400000e+002 -7.500000e-001
    endloop
  endfacet
  facet normal -8.881784e-016 2.664535e-015 1.000000e+000
    outer loop
      vertex   -1.067500e+002 1.360000e+002 -7.500000e-001
      vertex   -1.042500e+002 1.360000e+002 -7.500000e-001
      vertex   -1.042500e+002 1.400000e+002 -7.500000e-001
    endloop
  endfacet
  facet normal 7.445025e-016 2.405483e-016 1.000000e+000
    outer loop
      vertex   -1.000000e+002 1.310000e+002 -7.500000e-001
      vertex   -1.000000e+002 1.490000e+002 -7.500000e-001
      vertex   -1.042500e+002 1.400000e+002 -7.500000e-001
    endloop
  endfacet
  facet normal 8.359326e-016 1.973730e-016 1.000000e+000
    outer loop
      vertex   -1.042500e+002 1.400000e+002 -7.500000e-001
      vertex   -1.000000e+002 1.490000e+002 -7.500000e-001
      vertex   -1.042500e+002 1.490000e+002 -7.500000e-001
    endloop
  endfacet
  facet normal 0.000000e+000 1.000000e+000 0.000000e+000
    outer loop
      vertex   -9.800000e+001 1.490000e+002 -2.750000e+000
      vertex   -9.800000e+001 1.490000e+002 -3.750000e+000
      vertex   -1.000000e+002 1.490000e+002 -7.500000e-001
    endloop
  endfacet
  facet normal 0.000000e+000 1.000000e+000 0.000000e+000
    outer loop
      vertex   -1.000000e+002 1.490000e+002 -7.500000e-001
      vertex   -9.800000e+001 1.490000e+002 -3.750000e+000
      vertex   -1.042500e+002 1.490000e+002 -7.500000e-001
    endloop
  endfacet
  facet normal 0.000000e+000 1.000000e+000 0.000000e+000
    outer loop
      vertex   -1.042500e+002 1.490000e+002 -7.500000e-001
      vertex   -9.800000e+001 1.490000e+002 -3.750000e+000
      vertex   -1.087500e+002 1.490000e+002 -9.750000e+000
    endloop
  endfacet
  facet normal -0.000000e+000 1.000000e+000 0.000000e+000
    outer loop
      vertex   -1.107500e+002 1.490000e+002 -7.750000e+000
      vertex   -1.042500e+002 1.490000e+002 -7.500000e-001
      vertex   -1.087500e+002 1.490000e+002 -9.750000e+000
    endloop
  endfacet
  facet normal -0.000000e+000 1.000000e+000 0.000000e+000
    outer loop
      vertex   -1.107500e+002 1.490000e+002 -7.750000e+000
      vertex   -1.107500e+002 1.490000e+002 1.675000e+001
      vertex   -1.042500e+002 1.490000e+002 -7.500000e-001
    endloop
  endfacet
  facet normal -0.000000e+000 1.000000e+000 -0.000000e+000
    outer loop
      vertex   -1.042500e+002 1.490000e+002 -7.500000e-001
      vertex   -1.107500e+002 1.490000e+002 1.675000e+001
      vertex   -1.042500e+002 1.490000e+002 1.675000e+001
    endloop
  endfacet
  facet normal -0.000000e+000 1.000000e+000 0.000000e+000
    outer loop
      vertex   -9.800000e+001 1.490000e+002 -3.750000e+000
      vertex   -9.200000e+001 1.490000e+002 -3.750000e+000
      vertex   -1.087500e+002 1.490000e+002 -9.750000e+000
    endloop
  endfacet
  facet normal -0.000000e+000 1.000000e+000 0.000000e+000
    outer loop
      vertex   -1.087500e+002 1.490000e+002 -9.750000e+000
      vertex   -9.200000e+001 1.490000e+002 -3.750000e+000
      vertex   -8.125000e+001 1.490000e+002 -9.750000e+000
    endloop
  endfacet
  facet normal 0.000000e+000 1.000000e+000 -0.000000e+000
    outer loop
      vertex   -8.125000e+001 1.490000e+002 -9.750000e+000
      vertex   -9.200000e+001 1.490000e+002 -3.750000e+000
      vertex   -8.575000e+001 1.490000e+002 -7.500000e-001
    endloop
  endfacet
  facet normal 0.000000e+000 1.000000e+000 -0.000000e+000
    outer loop
      vertex   -7.925000e+001 1.490000e+002 -7.750000e+000
      vertex   -8.575000e+001 1.490000e+002 -7.500000e-001
      vertex   -7.925000e+001 1.490000e+002 1.675000e+001
    endloop
  endfacet
  facet normal 0.000000e+000 1.000000e+000 0.000000e+000
    outer loop
      vertex   -7.925000e+001 1.490000e+002 -7.750000e+000
      vertex   -8.125000e+001 1.490000e+002 -9.750000e+000
      vertex   -8.575000e+001 1.490000e+002 -7.500000e-001
    endloop
  endfacet
  facet normal -0.000000e+000 1.000000e+000 0.000000e+000
    outer loop
      vertex   -9.200000e+001 1.490000e+002 -2.750000e+000
      vertex   -9.000000e+001 1.490000e+002 -7.500000e-001
      vertex   -9.200000e+001 1.490000e+002 -3.750000e+000
    endloop
  endfacet
  facet normal 0.000000e+000 1.000000e+000 0.000000e+000
    outer loop
      vertex   -9.200000e+001 1.490000e+002 -3.750000e+000
      vertex   -9.000000e+001 1.490000e+002 -7.500000e-001
      vertex   -8.575000e+001 1.490000e+002 -7.500000e-001
    endloop
  endfacet
  facet normal 0.000000e+000 1.000000e+000 0.000000e+000
    outer loop
      vertex   -8.575000e+001 1.490000e+002 -7.500000e-001
      vertex   -8.575000e+001 1.490000e+002 1.675000e+001
      vertex   -7.925000e+001 1.490000e+002 1.675000e+001
    endloop
  endfacet
  facet normal -7.071068e-001 1.744547e-016 7.071068e-001
    outer loop
      vertex   -9.200000e+001 1.310000e+002 -2.750000e+000
      vertex   -9.000000e+001 1.310000e+002 -7.500000e-001
      vertex   -9.200000e+001 1.490000e+002 -2.750000e+000
    endloop
  endfacet
  facet normal -7.071068e-001 1.700933e-016 7.071068e-001
    outer loop
      vertex   -9.200000e+001 1.490000e+002 -2.750000e+000
      vertex   -9.000000e+001 1.310000e+002 -7.500000e-001
      vertex   -9.000000e+001 1.490000e+002 -7.500000e-001
    endloop
  endfacet
  facet normal -1.000000e+000 0.000000e+000 -0.000000e+000
    outer loop
      vertex   -9.200000e+001 1.310000e+002 -2.750000e+000
      vertex   -9.200000e+001 1.490000e+002 -2.750000e+000
      vertex   -9.200000e+001 1.310000e+002 -3.750000e+000
    endloop
  endfacet
  facet normal -1.000000e+000 0.000000e+000 0.000000e+000
    outer loop
      vertex   -9.200000e+001 1.310000e+002 -3.750000e+000
      vertex   -9.200000e+001 1.490000e+002 -2.750000e+000
      vertex   -9.200000e+001 1.490000e+002 -3.750000e+000
    endloop
  endfacet
  facet normal 0.000000e+000 0.000000e+000 1.000000e+000
    outer loop
      vertex   -1.042500e+002 1.360000e+002 1.675000e+001
      vertex   -1.067500e+002 1.360000e+002 1.675000e+001
      vertex   -1.042500e+002 1.310000e+002 1.675000e+001
    endloop
  endfacet
  facet normal 0.000000e+000 0.000000e+000 1.000000e+000
    outer loop
      vertex   -1.042500e+002 1.310000e+002 1.675000e+001
      vertex   -1.067500e+002 1.360000e+002 1.675000e+001
      vertex   -1.107500e+002 1.310000e+002 1.675000e+001
    endloop
  endfacet
  facet normal 0.000000e+000 0.000000e+000 1.000000e+000
    outer loop
      vertex   -1.107500e+002 1.310000e+002 1.675000e+001
      vertex   -1.067500e+002 1.360000e+002 1.675000e+001
      vertex   -1.067500e+002 1.400000e+002 1.675000e+001
    endloop
  endfacet
  facet normal 5.465713e-016 2.429206e-016 1.000000e+000
    outer loop
      vertex   -1.107500e+002 1.490000e+002 1.675000e+001
      vertex   -1.067500e+002 1.400000e+002 1.675000e+001
      vertex   -1.042500e+002 1.490000e+002 1.675000e+001
    endloop
  endfacet
  facet normal -0.000000e+000 0.000000e+000 1.000000e+000
    outer loop
      vertex   -1.107500e+002 1.490000e+002 1.675000e+001
      vertex   -1.107500e+002 1.310000e+002 1.675000e+001
      vertex   -1.067500e+002 1.400000e+002 1.675000e+001
    endloop
  endfacet
  facet normal -0.000000e+000 3.947460e-016 1.000000e+000
    outer loop
      vertex   -1.067500e+002 1.400000e+002 1.675000e+001
      vertex   -1.042500e+002 1.400000e+002 1.675000e+001
      vertex   -1.042500e+002 1.490000e+002 1.675000e+001
    endloop
  endfacet
  facet normal -0.000000e+000 0.000000e+000 1.000000e+000
    outer loop
      vertex   -8.575000e+001 1.360000e+002 1.675000e+001
      vertex   -8.575000e+001 1.310000e+002 1.675000e+001
      vertex   -8.325000e+001 1.360000e+002 1.675000e+001
    endloop
  endfacet
  facet normal 0.000000e+000 0.000000e+000 1.000000e+000
    outer loop
      vertex   -8.325000e+001 1.360000e+002 1.675000e+001
      vertex   -8.575000e+001 1.310000e+002 1.675000e+001
      vertex   -7.925000e+001 1.310000e+002 1.675000e+001
    endloop
  endfacet
  facet normal -0.000000e+000 0.000000e+000 1.000000e+000
    outer loop
      vertex   -8.325000e+001 1.400000e+002 1.675000e+001
      vertex   -7.925000e+001 1.310000e+002 1.675000e+001
      vertex   -7.925000e+001 1.490000e+002 1.675000e+001
    endloop
  endfacet
  facet normal -5.465713e-016 2.429206e-016 1.000000e+000
    outer loop
      vertex   -8.575000e+001 1.490000e+002 1.675000e+001
      vertex   -8.325000e+001 1.400000e+002 1.675000e+001
      vertex   -7.925000e+001 1.490000e+002 1.675000e+001
    endloop
  endfacet
  facet normal -0.000000e+000 3.947460e-016 1.000000e+000
    outer loop
      vertex   -8.575000e+001 1.490000e+002 1.675000e+001
      vertex   -8.575000e+001 1.400000e+002 1.675000e+001
      vertex   -8.325000e+001 1.400000e+002 1.675000e+001
    endloop
  endfacet
  facet normal -0.000000e+000 -0.000000e+000 1.000000e+000
    outer loop
      vertex   -8.325000e+001 1.360000e+002 1.675000e+001
      vertex   -7.925000e+001 1.310000e+002 1.675000e+001
      vertex   -8.325000e+001 1.400000e+002 1.675000e+001
    endloop
  endfacet
  facet normal -0.000000e+000 -1.000000e+000 -0.000000e+000
    outer loop
      vertex   -1.042500e+002 1.400000e+002 1.675000e+001
      vertex   -1.067500e+002 1.400000e+002 1.675000e+001
      vertex   -1.042500e+002 1.400000e+002 -7.500000e-001
    endloop
  endfacet
  facet normal -0.000000e+000 -1.000000e+000 -0.000000e+000
    outer loop
      vertex   -1.042500e+002 1.400000e+002 -7.500000e-001
      vertex   -1.067500e+002 1.400000e+002 1.675000e+001
      vertex   -1.067500e+002 1.400000e+002 -7.500000e-001
    endloop
  endfacet
  facet normal 1.000000e+000 0.000000e+000 -0.000000e+000
    outer loop
      vertex   -1.067500e+002 1.360000e+002 -7.500000e-001
      vertex   -1.067500e+002 1.400000e+002 -7.500000e-001
      vertex   -1.067500e+002 1.360000e+002 1.675000e+001
    endloop
  endfacet
  facet normal 1.000000e+000 -0.000000e+000 0.000000e+000
    outer loop
      vertex   -1.067500e+002 1.360000e+002 1.675000e+001
      vertex   -1.067500e+002 1.400000e+002 -7.500000e-001
      vertex   -1.067500e+002 1.400000e+002 1.675000e+001
    endloop
  endfacet
  facet normal 1.000000e+000 0.000000e+000 0.000000e+000
    outer loop
      vertex   -1.042500e+002 1.360000e+002 1.675000e+001
      vertex   -1.042500e+002 1.310000e+002 1.675000e+001
      vertex   -1.042500e+002 1.360000e+002 -7.500000e-001
    endloop
  endfacet
  facet normal 1.000000e+000 0.000000e+000 0.000000e+000
    outer loop
      vertex   -1.042500e+002 1.360000e+002 -7.500000e-001
      vertex   -1.042500e+002 1.310000e+002 1.675000e+001
      vertex   -1.042500e+002 1.310000e+002 -7.500000e-001
    endloop
  endfacet
  facet normal 1.000000e+000 0.000000e+000 0.000000e+000
    outer loop
      vertex   -7.925000e+001 1.490000e+002 1.675000e+001
      vertex   -7.925000e+001 1.310000e+002 1.675000e+001
      vertex   -7.925000e+001 1.490000e+002 -7.750000e+000
    endloop
  endfacet
  facet normal 1.000000e+000 0.000000e+000 0.000000e+000
    outer loop
      vertex   -7.925000e+001 1.490000e+002 -7.750000e+000
      vertex   -7.925000e+001 1.310000e+002 1.675000e+001
      vertex   -7.925000e+001 1.310000e+002 -7.750000e+000
    endloop
  endfacet
  facet normal -1.000000e+000 0.000000e+000 -0.000000e+000
    outer loop
      vertex   -8.575000e+001 1.310000e+002 1.675000e+001
      vertex   -8.575000e+001 1.360000e+002 1.675000e+001
      vertex   -8.575000e+001 1.310000e+002 -7.500000e-001
    endloop
  endfacet
  facet normal -1.000000e+000 0.000000e+000 0.000000e+000
    outer loop
      vertex   -8.575000e+001 1.310000e+002 -7.500000e-001
      vertex   -8.575000e+001 1.360000e+002 1.675000e+001
      vertex   -8.575000e+001 1.360000e+002 -7.500000e-001
    endloop
  endfacet
  facet normal -7.071068e-001 -6.978189e-016 -7.071068e-001
    outer loop
      vertex   -1.107500e+002 1.490000e+002 -7.750000e+000
      vertex   -1.087500e+002 1.490000e+002 -9.750000e+000
      vertex   -1.107500e+002 1.310000e+002 -7.750000e+000
    endloop
  endfacet
  facet normal -7.071068e-001 -1.395638e-016 -7.071068e-001
    outer loop
      vertex   -1.107500e+002 1.310000e+002 -7.750000e+000
      vertex   -1.087500e+002 1.490000e+002 -9.750000e+000
      vertex   -1.087500e+002 1.310000e+002 -9.750000e+000
    endloop
  endfacet
  facet normal 0.000000e+000 -1.973730e-016 -1.000000e+000
    outer loop
      vertex   -1.087500e+002 1.310000e+002 -9.750000e+000
      vertex   -1.087500e+002 1.490000e+002 -9.750000e+000
      vertex   -8.125000e+001 1.310000e+002 -9.750000e+000
    endloop
  endfacet
  facet normal 0.000000e+000 -1.973730e-016 -1.000000e+000
    outer loop
      vertex   -8.125000e+001 1.310000e+002 -9.750000e+000
      vertex   -1.087500e+002 1.490000e+002 -9.750000e+000
      vertex   -8.125000e+001 1.490000e+002 -9.750000e+000
    endloop
  endfacet
  facet normal 7.071068e-001 -1.744547e-016 -7.071068e-001
    outer loop
      vertex   -7.925000e+001 1.310000e+002 -7.750000e+000
      vertex   -8.125000e+001 1.310000e+002 -9.750000e+000
      vertex   -7.925000e+001 1.490000e+002 -7.750000e+000
    endloop
  endfacet
  facet normal 7.071068e-001 -1.395638e-016 -7.071068e-001
    outer loop
      vertex   -7.925000e+001 1.490000e+002 -7.750000e+000
      vertex   -8.125000e+001 1.310000e+002 -9.750000e+000
      vertex   -8.125000e+001 1.490000e+002 -9.750000e+000
    endloop
  endfacet
  facet normal 1.000000e+000 0.000000e+000 0.000000e+000
    outer loop
      vertex   -9.800000e+001 1.490000e+002 -2.750000e+000
      vertex   -9.800000e+001 1.310000e+002 -2.750000e+000
      vertex   -9.800000e+001 1.490000e+002 -3.750000e+000
    endloop
  endfacet
  facet normal 1.000000e+000 0.000000e+000 0.000000e+000
    outer loop
      vertex   -9.800000e+001 1.490000e+002 -3.750000e+000
      vertex   -9.800000e+001 1.310000e+002 -2.750000e+000
      vertex   -9.800000e+001 1.310000e+002 -3.750000e+000
    endloop
  endfacet
  facet normal -0.000000e+000 2.467162e-016 1.000000e+000
    outer loop
      vertex   -9.800000e+001 1.310000e+002 -3.750000e+000
      vertex   -9.200000e+001 1.310000e+002 -3.750000e+000
      vertex   -9.800000e+001 1.490000e+002 -3.750000e+000
    endloop
  endfacet
  facet normal 0.000000e+000 2.467162e-016 1.000000e+000
    outer loop
      vertex   -9.800000e+001 1.490000e+002 -3.750000e+000
      vertex   -9.200000e+001 1.310000e+002 -3.750000e+000
      vertex   -9.200000e+001 1.490000e+002 -3.750000e+000
    endloop
  endfacet
  facet normal 1.000000e+000 0.000000e+000 0.000000e+000
    outer loop
      vertex   -1.042500e+002 1.490000e+002 1.675000e+001
      vertex   -1.042500e+002 1.400000e+002 1.675000e+001
      vertex   -1.042500e+002 1.490000e+002 -7.500000e-001
    endloop
  endfacet
  facet normal 1.000000e+000 0.000000e+000 0.000000e+000
    outer loop
      vertex   -1.042500e+002 1.490000e+002 -7.500000e-001
      vertex   -1.042500e+002 1.400000e+002 1.675000e+001
      vertex   -1.042500e+002 1.400000e+002 -7.500000e-001
    endloop
  endfacet
  facet normal -1.000000e+000 0.000000e+000 -0.000000e+000
    outer loop
      vertex   -8.575000e+001 1.400000e+002 1.675000e+001
      vertex   -8.575000e+001 1.490000e+002 1.675000e+001
      vertex   -8.575000e+001 1.400000e+002 -7.500000e-001
    endloop
  endfacet
  facet normal -1.000000e+000 0.000000e+000 0.000000e+000
    outer loop
      vertex   -8.575000e+001 1.400000e+002 -7.500000e-001
      vertex   -8.575000e+001 1.490000e+002 1.675000e+001
      vertex   -8.575000e+001 1.490000e+002 -7.500000e-001
    endloop
  endfacet
  facet normal -0.000000e+000 -1.000000e+000 -0.000000e+000
    outer loop
      vertex   -8.325000e+001 1.400000e+002 1.675000e+001
      vertex   -8.575000e+001 1.400000e+002 1.675000e+001
      vertex   -8.325000e+001 1.400000e+002 -7.500000e-001
    endloop
  endfacet
  facet normal -0.000000e+000 -1.000000e+000 -0.000000e+000
    outer loop
      vertex   -8.325000e+001 1.400000e+002 -7.500000e-001
      vertex   -8.575000e+001 1.400000e+002 1.675000e+001
      vertex   -8.575000e+001 1.400000e+002 -7.500000e-001
    endloop
  endfacet
  facet normal -0.000000e+000 -1.000000e+000 -0.000000e+000
    outer loop
      vertex   -9.800000e+001 1.310000e+002 -2.750000e+000
      vertex   -1.000000e+002 1.310000e+002 -7.500000e-001
      vertex   -9.800000e+001 1.310000e+002 -3.750000e+000
    endloop
  endfacet
  facet normal 0.000000e+000 -1.000000e+000 0.000000e+000
    outer loop
      vertex   -9.800000e+001 1.310000e+002 -3.750000e+000
      vertex   -1.000000e+002 1.310000e+002 -7.500000e-001
      vertex   -1.042500e+002 1.310000e+002 -7.500000e-001
    endloop
  endfacet
  facet normal -0.000000e+000 -1.000000e+000 0.000000e+000
    outer loop
      vertex   -1.087500e+002 1.310000e+002 -9.750000e+000
      vertex   -1.042500e+002 1.310000e+002 -7.500000e-001
      vertex   -1.107500e+002 1.310000e+002 -7.750000e+000
    endloop
  endfacet
  facet normal 0.000000e+000 -1.000000e+000 0.000000e+000
    outer loop
      vertex   -1.087500e+002 1.310000e+002 -9.750000e+000
      vertex   -9.800000e+001 1.310000e+002 -3.750000e+000
      vertex   -1.042500e+002 1.310000e+002 -7.500000e-001
    endloop
  endfacet
  facet normal 0.000000e+000 -1.000000e+000 0.000000e+000
    outer loop
      vertex   -1.087500e+002 1.310000e+002 -9.750000e+000
      vertex   -8.125000e+001 1.310000e+002 -9.750000e+000
      vertex   -9.800000e+001 1.310000e+002 -3.750000e+000
    endloop
  endfacet
  facet normal 0.000000e+000 -1.000000e+000 0.000000e+000
    outer loop
      vertex   -9.800000e+001 1.310000e+002 -3.750000e+000
      vertex   -8.125000e+001 1.310000e+002 -9.750000e+000
      vertex   -9.200000e+001 1.310000e+002 -3.750000e+000
    endloop
  endfacet
  facet normal 0.000000e+000 -1.000000e+000 0.000000e+000
    outer loop
      vertex   -9.200000e+001 1.310000e+002 -3.750000e+000
      vertex   -8.125000e+001 1.310000e+002 -9.750000e+000
      vertex   -8.575000e+001 1.310000e+002 -7.500000e-001
    endloop
  endfacet
  facet normal 0.000000e+000 -1.000000e+000 -0.000000e+000
    outer loop
      vertex   -9.000000e+001 1.310000e+002 -7.500000e-001
      vertex   -9.200000e+001 1.310000e+002 -3.750000e+000
      vertex   -8.575000e+001 1.310000e+002 -7.500000e-001
    endloop
  endfacet
  facet normal 0.000000e+000 -1.000000e+000 -0.000000e+000
    outer loop
      vertex   -9.000000e+001 1.310000e+002 -7.500000e-001
      vertex   -9.200000e+001 1.310000e+002 -2.750000e+000
      vertex   -9.200000e+001 1.310000e+002 -3.750000e+000
    endloop
  endfacet
  facet normal 4.372571e-015 -1.000000e+000 0.000000e+000
    outer loop
      vertex   -1.042500e+002 1.310000e+002 1.675000e+001
      vertex   -1.107500e+002 1.310000e+002 1.675000e+001
      vertex   -1.042500e+002 1.310000e+002 -7.500000e-001
    endloop
  endfacet
  facet normal 1.249306e-015 -1.000000e+000 -1.160070e-015
    outer loop
      vertex   -1.042500e+002 1.310000e+002 -7.500000e-001
      vertex   -1.107500e+002 1.310000e+002 1.675000e+001
      vertex   -1.107500e+002 1.310000e+002 -7.750000e+000
    endloop
  endfacet
  facet normal -9.473903e-015 -1.000000e+000 -4.736952e-015
    outer loop
      vertex   -8.125000e+001 1.310000e+002 -9.750000e+000
      vertex   -7.925000e+001 1.310000e+002 -7.750000e+000
      vertex   -8.575000e+001 1.310000e+002 -7.500000e-001
    endloop
  endfacet
  facet normal -4.372571e-015 -1.000000e+000 0.000000e+000
    outer loop
      vertex   -8.575000e+001 1.310000e+002 -7.500000e-001
      vertex   -7.925000e+001 1.310000e+002 -7.750000e+000
      vertex   -7.925000e+001 1.310000e+002 1.675000e+001
    endloop
  endfacet
  facet normal -4.372571e-015 -1.000000e+000 -0.000000e+000
    outer loop
      vertex   -8.575000e+001 1.310000e+002 1.675000e+001
      vertex   -8.575000e+001 1.310000e+002 -7.500000e-001
      vertex   -7.925000e+001 1.310000e+002 1.675000e+001
    endloop
  endfacet
  facet normal -1.000000e+000 0.000000e+000 5.800349e-016
    outer loop
      vertex   -1.107500e+002 1.310000e+002 1.675000e+001
      vertex   -1.107500e+002 1.490000e+002 1.675000e+001
      vertex   -1.107500e+002 1.310000e+002 -7.750000e+000
    endloop
  endfacet
  facet normal -1.000000e+000 -7.894919e-016 1.160070e-015
    outer loop
      vertex   -1.107500e+002 1.310000e+002 -7.750000e+000
      vertex   -1.107500e+002 1.490000e+002 1.675000e+001
      vertex   -1.107500e+002 1.490000e+002 -7.750000e+000
    endloop
  endfacet
endsolid
