solid ascii
  facet normal -0.000000e+000 -1.000000e+000 0.000000e+000
    outer loop
      vertex   -3.100000e+001 4.650000e+001 1.450000e+001
      vertex   -3.100000e+001 4.650000e+001 3.250000e+001
      vertex   -3.300000e+001 4.650000e+001 1.250000e+001
    endloop
  endfacet
  facet normal 0.000000e+000 -1.000000e+000 0.000000e+000
    outer loop
      vertex   -3.300000e+001 4.650000e+001 1.250000e+001
      vertex   -3.100000e+001 4.650000e+001 3.250000e+001
      vertex   -3.900000e+001 4.650000e+001 3.250000e+001
    endloop
  endfacet
  facet normal 0.000000e+000 -1.000000e+000 0.000000e+000
    outer loop
      vertex   -3.900000e+001 4.650000e+001 1.250000e+001
      vertex   -3.300000e+001 4.650000e+001 1.250000e+001
      vertex   -3.900000e+001 4.650000e+001 3.250000e+001
    endloop
  endfacet
  facet normal 0.000000e+000 0.000000e+000 -1.000000e+000
    outer loop
      vertex   -3.900000e+001 4.650000e+001 1.250000e+001
      vertex   -3.900000e+001 6.600000e+001 1.250000e+001
      vertex   -3.300000e+001 4.650000e+001 1.250000e+001
    endloop
  endfacet
  facet normal 1.683368e-016 5.179594e-017 -1.000000e+000
    outer loop
      vertex   -3.300000e+001 4.650000e+001 1.250000e+001
      vertex   -3.900000e+001 6.600000e+001 1.250000e+001
      vertex   -3.300000e+001 8.079529e+001 1.250000e+001
    endloop
  endfacet
  facet normal -9.635493e-017 1.591375e-016 -1.000000e+000
    outer loop
      vertex   -3.300000e+001 8.079529e+001 1.250000e+001
      vertex   -3.900000e+001 6.600000e+001 1.250000e+001
      vertex   -3.705907e+001 8.950000e+001 1.250000e+001
    endloop
  endfacet
  facet normal -1.812036e-015 3.008403e-016 -1.000000e+000
    outer loop
      vertex   -3.705907e+001 8.950000e+001 1.250000e+001
      vertex   -3.900000e+001 6.600000e+001 1.250000e+001
      vertex   -4.000000e+001 8.950000e+001 1.250000e+001
    endloop
  endfacet
  facet normal 1.776357e-015 4.535379e-016 -1.000000e+000
    outer loop
      vertex   -4.000000e+001 8.950000e+001 1.250000e+001
      vertex   -3.900000e+001 6.600000e+001 1.250000e+001
      vertex   -4.000000e+001 6.600000e+001 1.250000e+001
    endloop
  endfacet
  facet normal -1.000000e+000 0.000000e+000 -0.000000e+000
    outer loop
      vertex   -3.900000e+001 4.650000e+001 3.250000e+001
      vertex   -3.900000e+001 6.600000e+001 3.250000e+001
      vertex   -3.900000e+001 4.650000e+001 1.250000e+001
    endloop
  endfacet
  facet normal -1.000000e+000 0.000000e+000 0.000000e+000
    outer loop
      vertex   -3.900000e+001 4.650000e+001 1.250000e+001
      vertex   -3.900000e+001 6.600000e+001 3.250000e+001
      vertex   -3.900000e+001 6.600000e+001 1.250000e+001
    endloop
  endfacet
  facet normal 7.071068e-001 3.662526e-017 -7.071068e-001
    outer loop
      vertex   -3.300000e+001 8.079529e+001 1.250000e+001
      vertex   -3.100000e+001 7.650628e+001 1.450000e+001
      vertex   -3.300000e+001 4.650000e+001 1.250000e+001
    endloop
  endfacet
  facet normal 7.071068e-001 8.372074e-017 -7.071068e-001
    outer loop
      vertex   -3.300000e+001 4.650000e+001 1.250000e+001
      vertex   -3.100000e+001 7.650628e+001 1.450000e+001
      vertex   -3.100000e+001 4.650000e+001 1.450000e+001
    endloop
  endfacet
  facet normal 1.000000e+000 0.000000e+000 -0.000000e+000
    outer loop
      vertex   -3.100000e+001 4.650000e+001 1.450000e+001
      vertex   -3.100000e+001 7.650628e+001 1.450000e+001
      vertex   -3.100000e+001 4.650000e+001 3.250000e+001
    endloop
  endfacet
  facet normal 1.000000e+000 -0.000000e+000 0.000000e+000
    outer loop
      vertex   -3.100000e+001 4.650000e+001 3.250000e+001
      vertex   -3.100000e+001 7.650628e+001 1.450000e+001
      vertex   -3.100000e+001 7.650628e+001 3.250000e+001
    endloop
  endfacet
  facet normal 9.063078e-001 4.226183e-001 0.000000e+000
    outer loop
      vertex   -3.100000e+001 7.650628e+001 1.450000e+001
      vertex   -3.300000e+001 8.079529e+001 1.250000e+001
      vertex   -3.100000e+001 7.650628e+001 3.250000e+001
    endloop
  endfacet
  facet normal 9.063078e-001 4.226183e-001 -7.434019e-017
    outer loop
      vertex   -3.100000e+001 7.650628e+001 3.250000e+001
      vertex   -3.300000e+001 8.079529e+001 1.250000e+001
      vertex   -3.705907e+001 8.950000e+001 3.250000e+001
    endloop
  endfacet
  facet normal 9.063078e-001 4.226183e-001 0.000000e+000
    outer loop
      vertex   -3.705907e+001 8.950000e+001 3.250000e+001
      vertex   -3.300000e+001 8.079529e+001 1.250000e+001
      vertex   -3.705907e+001 8.950000e+001 1.250000e+001
    endloop
  endfacet
  facet normal 0.000000e+000 -1.000000e+000 0.000000e+000
    outer loop
      vertex   -4.000000e+001 6.600000e+001 1.250000e+001
      vertex   -3.900000e+001 6.600000e+001 1.250000e+001
      vertex   -4.000000e+001 6.600000e+001 3.250000e+001
    endloop
  endfacet
  facet normal 0.000000e+000 -1.000000e+000 0.000000e+000
    outer loop
      vertex   -4.000000e+001 6.600000e+001 3.250000e+001
      vertex   -3.900000e+001 6.600000e+001 1.250000e+001
      vertex   -3.900000e+001 6.600000e+001 3.250000e+001
    endloop
  endfacet
  facet normal 0.000000e+000 -0.000000e+000 1.000000e+000
    outer loop
      vertex   -3.900000e+001 4.650000e+001 3.250000e+001
      vertex   -3.100000e+001 4.650000e+001 3.250000e+001
      vertex   -3.900000e+001 6.600000e+001 3.250000e+001
    endloop
  endfacet
  facet normal -5.771951e-016 -2.367980e-016 1.000000e+000
    outer loop
      vertex   -3.900000e+001 6.600000e+001 3.250000e+001
      vertex   -3.100000e+001 4.650000e+001 3.250000e+001
      vertex   -3.100000e+001 7.650628e+001 3.250000e+001
    endloop
  endfacet
  facet normal -1.054503e-016 -5.960078e-016 1.000000e+000
    outer loop
      vertex   -3.705907e+001 8.950000e+001 3.250000e+001
      vertex   -3.900000e+001 6.600000e+001 3.250000e+001
      vertex   -3.100000e+001 7.650628e+001 3.250000e+001
    endloop
  endfacet
  facet normal -4.832097e-015 -2.056212e-016 1.000000e+000
    outer loop
      vertex   -3.705907e+001 8.950000e+001 3.250000e+001
      vertex   -4.000000e+001 8.950000e+001 3.250000e+001
      vertex   -3.900000e+001 6.600000e+001 3.250000e+001
    endloop
  endfacet
  facet normal 0.000000e+000 0.000000e+000 1.000000e+000
    outer loop
      vertex   -3.900000e+001 6.600000e+001 3.250000e+001
      vertex   -4.000000e+001 8.950000e+001 3.250000e+001
      vertex   -4.000000e+001 6.600000e+001 3.250000e+001
    endloop
  endfacet
  facet normal -1.000000e+000 0.000000e+000 0.000000e+000
    outer loop
      vertex   -4.000000e+001 6.600000e+001 1.250000e+001
      vertex   -4.000000e+001 6.600000e+001 3.250000e+001
      vertex   -4.000000e+001 8.950000e+001 1.250000e+001
    endloop
  endfacet
  facet normal -1.000000e+000 0.000000e+000 0.000000e+000
    outer loop
      vertex   -4.000000e+001 8.950000e+001 1.250000e+001
      vertex   -4.000000e+001 6.600000e+001 3.250000e+001
      vertex   -4.000000e+001 8.950000e+001 3.250000e+001
    endloop
  endfacet
  facet normal 0.000000e+000 1.000000e+000 -0.000000e+000
    outer loop
      vertex   -3.705907e+001 8.950000e+001 1.250000e+001
      vertex   -4.000000e+001 8.950000e+001 1.250000e+001
      vertex   -3.705907e+001 8.950000e+001 3.250000e+001
    endloop
  endfacet
  facet normal 0.000000e+000 1.000000e+000 -0.000000e+000
    outer loop
      vertex   -3.705907e+001 8.950000e+001 3.250000e+001
      vertex   -4.000000e+001 8.950000e+001 1.250000e+001
      vertex   -4.000000e+001 8.950000e+001 3.250000e+001
    endloop
  endfacet
endsolid
