solid ascii
  facet normal -7.071068e-001 -7.071068e-001 -1.256074e-016
    outer loop
      vertex   -5.200000e+001 2.750000e+001 3.500000e+000
      vertex   -5.200000e+001 2.750000e+001 4.350000e+001
      vertex   -5.400000e+001 2.950000e+001 3.500000e+000
    endloop
  endfacet
  facet normal -7.071068e-001 -7.071068e-001 -1.884111e-016
    outer loop
      vertex   -5.400000e+001 2.950000e+001 3.500000e+000
      vertex   -5.200000e+001 2.750000e+001 4.350000e+001
      vertex   -5.400000e+001 2.950000e+001 4.350000e+001
    endloop
  endfacet
  facet normal -1.000000e+000 0.000000e+000 -0.000000e+000
    outer loop
      vertex   -5.400000e+001 2.950000e+001 4.350000e+001
      vertex   -5.400000e+001 3.450000e+001 4.350000e+001
      vertex   -5.400000e+001 2.950000e+001 3.500000e+000
    endloop
  endfacet
  facet normal -1.000000e+000 0.000000e+000 0.000000e+000
    outer loop
      vertex   -5.400000e+001 2.950000e+001 3.500000e+000
      vertex   -5.400000e+001 3.450000e+001 4.350000e+001
      vertex   -5.400000e+001 3.450000e+001 3.500000e+000
    endloop
  endfacet
  facet normal 0.000000e+000 -0.000000e+000 1.000000e+000
    outer loop
      vertex   -5.200000e+001 2.750000e+001 4.350000e+001
      vertex   -4.000000e+001 2.750000e+001 4.350000e+001
      vertex   -5.400000e+001 2.950000e+001 4.350000e+001
    endloop
  endfacet
  facet normal 2.900174e-016 2.030122e-015 1.000000e+000
    outer loop
      vertex   -5.400000e+001 2.950000e+001 4.350000e+001
      vertex   -4.000000e+001 2.750000e+001 4.350000e+001
      vertex   -4.000000e+001 3.450000e+001 4.350000e+001
    endloop
  endfacet
  facet normal 1.015061e-015 0.000000e+000 1.000000e+000
    outer loop
      vertex   -5.400000e+001 3.450000e+001 4.350000e+001
      vertex   -5.400000e+001 2.950000e+001 4.350000e+001
      vertex   -4.000000e+001 3.450000e+001 4.350000e+001
    endloop
  endfacet
  facet normal 1.000000e+000 0.000000e+000 0.000000e+000
    outer loop
      vertex   -4.000000e+001 3.450000e+001 1.192879e+001
      vertex   -4.000000e+001 2.750000e+001 1.192879e+001
      vertex   -4.000000e+001 3.450000e+001 3.500000e+000
    endloop
  endfacet
  facet normal 1.000000e+000 0.000000e+000 0.000000e+000
    outer loop
      vertex   -4.000000e+001 3.450000e+001 3.500000e+000
      vertex   -4.000000e+001 2.750000e+001 1.192879e+001
      vertex   -4.000000e+001 2.750000e+001 3.500000e+000
    endloop
  endfacet
  facet normal 1.000000e+000 0.000000e+000 -0.000000e+000
    outer loop
      vertex   -4.000000e+001 2.750000e+001 3.292879e+001
      vertex   -4.000000e+001 3.450000e+001 3.292879e+001
      vertex   -4.000000e+001 2.750000e+001 4.350000e+001
    endloop
  endfacet
  facet normal 1.000000e+000 -0.000000e+000 -0.000000e+000
    outer loop
      vertex   -4.000000e+001 2.750000e+001 4.350000e+001
      vertex   -4.000000e+001 3.450000e+001 3.292879e+001
      vertex   -4.000000e+001 3.450000e+001 4.350000e+001
    endloop
  endfacet
  facet normal -0.000000e+000 -1.000000e+000 -6.721487e-016
    outer loop
      vertex   -4.000000e+001 2.750000e+001 4.350000e+001
      vertex   -5.200000e+001 2.750000e+001 4.350000e+001
      vertex   -4.800000e+001 2.750000e+001 3.292879e+001
    endloop
  endfacet
  facet normal 0.000000e+000 -1.000000e+000 -6.721487e-016
    outer loop
      vertex   -4.000000e+001 2.750000e+001 3.292879e+001
      vertex   -4.000000e+001 2.750000e+001 4.350000e+001
      vertex   -4.800000e+001 2.750000e+001 3.292879e+001
    endloop
  endfacet
  facet normal -0.000000e+000 -1.000000e+000 0.000000e+000
    outer loop
      vertex   -4.000000e+001 2.750000e+001 3.500000e+000
      vertex   -4.800000e+001 2.750000e+001 1.192879e+001
      vertex   -5.200000e+001 2.750000e+001 3.500000e+000
    endloop
  endfacet
  facet normal 8.881784e-016 -1.000000e+000 8.429952e-016
    outer loop
      vertex   -4.000000e+001 2.750000e+001 3.500000e+000
      vertex   -4.000000e+001 2.750000e+001 1.192879e+001
      vertex   -4.800000e+001 2.750000e+001 1.192879e+001
    endloop
  endfacet
  facet normal -0.000000e+000 -1.000000e+000 0.000000e+000
    outer loop
      vertex   -4.800000e+001 2.750000e+001 1.192879e+001
      vertex   -4.800000e+001 2.750000e+001 3.292879e+001
      vertex   -5.200000e+001 2.750000e+001 3.500000e+000
    endloop
  endfacet
  facet normal 1.306901e-015 -1.000000e+000 -1.776357e-016
    outer loop
      vertex   -5.200000e+001 2.750000e+001 3.500000e+000
      vertex   -4.800000e+001 2.750000e+001 3.292879e+001
      vertex   -5.200000e+001 2.750000e+001 4.350000e+001
    endloop
  endfacet
  facet normal 4.440892e-016 4.507777e-031 1.000000e+000
    outer loop
      vertex   -4.800000e+001 2.750000e+001 1.192879e+001
      vertex   -4.000000e+001 2.750000e+001 1.192879e+001
      vertex   -4.800000e+001 3.450000e+001 1.192879e+001
    endloop
  endfacet
  facet normal 2.220446e-016 -2.537653e-016 1.000000e+000
    outer loop
      vertex   -4.800000e+001 3.450000e+001 1.192879e+001
      vertex   -4.000000e+001 2.750000e+001 1.192879e+001
      vertex   -4.000000e+001 3.450000e+001 1.192879e+001
    endloop
  endfacet
  facet normal 1.000000e+000 1.015061e-015 0.000000e+000
    outer loop
      vertex   -4.800000e+001 2.750000e+001 3.292879e+001
      vertex   -4.800000e+001 2.750000e+001 1.192879e+001
      vertex   -4.800000e+001 3.450000e+001 3.292879e+001
    endloop
  endfacet
  facet normal 1.000000e+000 1.015061e-015 0.000000e+000
    outer loop
      vertex   -4.800000e+001 3.450000e+001 3.292879e+001
      vertex   -4.800000e+001 2.750000e+001 1.192879e+001
      vertex   -4.800000e+001 3.450000e+001 1.192879e+001
    endloop
  endfacet
  facet normal 0.000000e+000 0.000000e+000 -1.000000e+000
    outer loop
      vertex   -4.000000e+001 2.750000e+001 3.292879e+001
      vertex   -4.800000e+001 2.750000e+001 3.292879e+001
      vertex   -4.000000e+001 3.450000e+001 3.292879e+001
    endloop
  endfacet
  facet normal -0.000000e+000 0.000000e+000 -1.000000e+000
    outer loop
      vertex   -4.000000e+001 3.450000e+001 3.292879e+001
      vertex   -4.800000e+001 2.750000e+001 3.292879e+001
      vertex   -4.800000e+001 3.450000e+001 3.292879e+001
    endloop
  endfacet
  facet normal 3.129708e-016 1.000000e+000 1.776357e-016
    outer loop
      vertex   -5.400000e+001 3.450000e+001 4.350000e+001
      vertex   -4.800000e+001 3.450000e+001 3.292879e+001
      vertex   -5.400000e+001 3.450000e+001 3.500000e+000
    endloop
  endfacet
  facet normal 0.000000e+000 1.000000e+000 0.000000e+000
    outer loop
      vertex   -5.400000e+001 3.450000e+001 4.350000e+001
      vertex   -4.000000e+001 3.450000e+001 4.350000e+001
      vertex   -4.800000e+001 3.450000e+001 3.292879e+001
    endloop
  endfacet
  facet normal -8.881784e-016 1.000000e+000 6.721487e-016
    outer loop
      vertex   -4.800000e+001 3.450000e+001 3.292879e+001
      vertex   -4.000000e+001 3.450000e+001 4.350000e+001
      vertex   -4.000000e+001 3.450000e+001 3.292879e+001
    endloop
  endfacet
  facet normal 1.184238e-015 1.000000e+000 0.000000e+000
    outer loop
      vertex   -4.800000e+001 3.450000e+001 3.292879e+001
      vertex   -4.800000e+001 3.450000e+001 1.192879e+001
      vertex   -5.400000e+001 3.450000e+001 3.500000e+000
    endloop
  endfacet
  facet normal -1.069615e-031 1.000000e+000 8.429952e-016
    outer loop
      vertex   -5.400000e+001 3.450000e+001 3.500000e+000
      vertex   -4.800000e+001 3.450000e+001 1.192879e+001
      vertex   -4.000000e+001 3.450000e+001 3.500000e+000
    endloop
  endfacet
  facet normal -8.881784e-016 1.000000e+000 0.000000e+000
    outer loop
      vertex   -4.000000e+001 3.450000e+001 3.500000e+000
      vertex   -4.800000e+001 3.450000e+001 1.192879e+001
      vertex   -4.000000e+001 3.450000e+001 1.192879e+001
    endloop
  endfacet
  facet normal 0.000000e+000 -8.881784e-016 -1.000000e+000
    outer loop
      vertex   -5.200000e+001 2.750000e+001 3.500000e+000
      vertex   -5.400000e+001 2.950000e+001 3.500000e+000
      vertex   -4.000000e+001 2.750000e+001 3.500000e+000
    endloop
  endfacet
  facet normal 1.268826e-016 0.000000e+000 -1.000000e+000
    outer loop
      vertex   -4.000000e+001 2.750000e+001 3.500000e+000
      vertex   -5.400000e+001 2.950000e+001 3.500000e+000
      vertex   -4.000000e+001 3.450000e+001 3.500000e+000
    endloop
  endfacet
  facet normal 9.516197e-017 8.881784e-017 -1.000000e+000
    outer loop
      vertex   -4.000000e+001 3.450000e+001 3.500000e+000
      vertex   -5.400000e+001 2.950000e+001 3.500000e+000
      vertex   -5.400000e+001 3.450000e+001 3.500000e+000
    endloop
  endfacet
endsolid
